<mxfile host="Electron" modified="2023-10-22T01:38:28.231Z" agent="Mozilla/5.0 (Windows NT 10.0; Win64; x64) AppleWebKit/537.36 (KHTML, like Gecko) draw.io/22.0.2 Chrome/114.0.5735.289 Electron/25.8.4 Safari/537.36" etag="Ws-HLEG2AFW3IARxfF5R" version="22.0.2" type="device">
  <diagram name="Page-1" id="MpBzfjASAzCgeWoV1U75">
    <mxGraphModel dx="2705" dy="1367" grid="1" gridSize="10" guides="1" tooltips="1" connect="1" arrows="1" fold="1" page="1" pageScale="1" pageWidth="850" pageHeight="1100" math="0" shadow="0">
      <root>
        <mxCell id="0" />
        <mxCell id="1" parent="0" />
        <mxCell id="z8kIwJJlA8h6gfcJW_PZ-9" style="edgeStyle=orthogonalEdgeStyle;rounded=0;orthogonalLoop=1;jettySize=auto;html=1;exitX=1;exitY=0.5;exitDx=0;exitDy=0;exitPerimeter=0;" parent="1" source="z8kIwJJlA8h6gfcJW_PZ-1" target="z8kIwJJlA8h6gfcJW_PZ-8" edge="1">
          <mxGeometry relative="1" as="geometry" />
        </mxCell>
        <mxCell id="z8kIwJJlA8h6gfcJW_PZ-6" style="edgeStyle=orthogonalEdgeStyle;rounded=0;orthogonalLoop=1;jettySize=auto;html=1;exitX=1;exitY=0.5;exitDx=0;exitDy=0;exitPerimeter=0;" parent="1" source="z8kIwJJlA8h6gfcJW_PZ-2" target="z8kIwJJlA8h6gfcJW_PZ-5" edge="1">
          <mxGeometry relative="1" as="geometry" />
        </mxCell>
        <mxCell id="z8kIwJJlA8h6gfcJW_PZ-11" style="edgeStyle=orthogonalEdgeStyle;rounded=0;orthogonalLoop=1;jettySize=auto;html=1;exitX=1;exitY=0.5;exitDx=0;exitDy=0;exitPerimeter=0;" parent="1" source="z8kIwJJlA8h6gfcJW_PZ-3" target="z8kIwJJlA8h6gfcJW_PZ-10" edge="1">
          <mxGeometry relative="1" as="geometry" />
        </mxCell>
        <mxCell id="z8kIwJJlA8h6gfcJW_PZ-14" style="edgeStyle=orthogonalEdgeStyle;rounded=0;orthogonalLoop=1;jettySize=auto;html=1;exitX=1;exitY=0.5;exitDx=0;exitDy=0;" parent="1" source="z8kIwJJlA8h6gfcJW_PZ-5" edge="1">
          <mxGeometry relative="1" as="geometry">
            <mxPoint x="520" y="530" as="targetPoint" />
            <Array as="points">
              <mxPoint x="440" y="410" />
              <mxPoint x="440" y="530" />
            </Array>
          </mxGeometry>
        </mxCell>
        <mxCell id="z8kIwJJlA8h6gfcJW_PZ-16" style="edgeStyle=orthogonalEdgeStyle;rounded=0;orthogonalLoop=1;jettySize=auto;html=1;exitX=1;exitY=0.5;exitDx=0;exitDy=0;" parent="1" source="z8kIwJJlA8h6gfcJW_PZ-8" target="z8kIwJJlA8h6gfcJW_PZ-13" edge="1">
          <mxGeometry relative="1" as="geometry" />
        </mxCell>
        <mxCell id="z8kIwJJlA8h6gfcJW_PZ-15" style="edgeStyle=orthogonalEdgeStyle;rounded=0;orthogonalLoop=1;jettySize=auto;html=1;exitX=1;exitY=0.5;exitDx=0;exitDy=0;" parent="1" source="z8kIwJJlA8h6gfcJW_PZ-10" target="z8kIwJJlA8h6gfcJW_PZ-13" edge="1">
          <mxGeometry relative="1" as="geometry">
            <Array as="points">
              <mxPoint x="440" y="650" />
              <mxPoint x="440" y="530" />
            </Array>
          </mxGeometry>
        </mxCell>
        <mxCell id="z8kIwJJlA8h6gfcJW_PZ-17" style="edgeStyle=orthogonalEdgeStyle;rounded=0;orthogonalLoop=1;jettySize=auto;html=1;exitX=1;exitY=0.5;exitDx=0;exitDy=0;" parent="1" source="z8kIwJJlA8h6gfcJW_PZ-13" target="z8kIwJJlA8h6gfcJW_PZ-4" edge="1">
          <mxGeometry relative="1" as="geometry" />
        </mxCell>
        <mxCell id="z8kIwJJlA8h6gfcJW_PZ-23" value="" style="group" parent="1" vertex="1" connectable="0">
          <mxGeometry x="53.405" y="370" width="60" height="80" as="geometry" />
        </mxCell>
        <mxCell id="z8kIwJJlA8h6gfcJW_PZ-2" value="pizza_cabin_orders" style="shape=cylinder3;whiteSpace=wrap;html=1;boundedLbl=1;backgroundOutline=1;size=15;labelPosition=center;verticalLabelPosition=bottom;align=center;verticalAlign=top;" parent="z8kIwJJlA8h6gfcJW_PZ-23" vertex="1">
          <mxGeometry width="60" height="80" as="geometry" />
        </mxCell>
        <mxCell id="z8kIwJJlA8h6gfcJW_PZ-21" value="" style="shape=image;verticalLabelPosition=bottom;verticalAlign=top;imageAspect=0;aspect=fixed;image=data:image/svg+xml,PHN2ZyB4bWxucz0iaHR0cDovL3d3dy53My5vcmcvMjAwMC9zdmciIGlkPSJzdmcyIiBwcmVzZXJ2ZUFzcGVjdFJhdGlvPSJ4TWlkWU1pZCIgdmVyc2lvbj0iMS4xIiB2aWV3Qm94PSI2LjAwMDAwMDk1MzY3NDMxNiAwLjAwMDAwMTk4OTI1MzQwNTU1NDMzNjUgMTkuNzA5MDAzNDQ4NDg2MzI4IDMxLjk5OTk5ODA5MjY1MTM2NyIgaGVpZ2h0PSI2My45OTk5OTYxODUzMDI3MzQiIHdpZHRoPSIzOS40MTgwMDY4OTY5NzI2NTYiPiYjeGE7ICA8bWV0YWRhdGEgaWQ9Im1ldGFkYXRhMTIiPiYjeGE7ICAgICYjeGE7ICAgICAgJiN4YTsgICAgICAgIGltYWdlL3N2Zyt4bWwmI3hhOyAgICAgICAgJiN4YTsgICAgICAmI3hhOyAgICAmI3hhOyAgPC9tZXRhZGF0YT4mI3hhOyAgPGRlZnMgaWQ9ImRlZnMxMCIvPiYjeGE7ICAmI3hhOyAgPGcgdHJhbnNmb3JtPSJtYXRyaXgoMC4wNjcwMzE3OCwwLDAsMC4wNjcwMzIwNCw1LjYwOTU4NjYsMS4wMTUwODEpIiBpZD0iZzQiPiYjeGE7ICAgIDxwYXRoIHN0eWxlPSJmaWxsOiMwMDAwMDAiIGlkPSJwYXRoNiIgZD0ibSAyMzcuNjE2ODYsMjQ5LjI2Nzc0IGMgLTE4LjU5MDE3LDAgLTM1LjI1NjU1LDguMjM2MTQgLTQ2LjY2OTUzLDIxLjIwMzA5IEwgMTYxLjcwMjIsMjQ5Ljc2NzM2IGMgMy4xMDQ0OSwtOC41NDczOSA0Ljg4NzAyLC0xNy43MjUzMyA0Ljg4NzAyLC0yNy4zMzE2NyAwLC05LjQzOTggLTEuNzIwNTEsLTE4LjQ2MzgzIC00LjcyMjc4LC0yNi44ODQ4OSBsIDI5LjE3OTY2LC0yMC40ODQxIGMgMTEuNDExODQsMTIuOTAxNDggMjguMDM0NTcsMjEuMDkyODMgNDYuNTcwNzYsMjEuMDkyODMgMzQuMzEyNDYsMCA2Mi4yMzIxOCwtMjcuOTE1MTMgNjIuMjMyMTgsLTYyLjIzMjE4IDAsLTM0LjMxNzA0OSAtMjcuOTE5NzIsLTYyLjIzMjE3MSAtNjIuMjMyMTgsLTYyLjIzMjE3MSAtMzQuMzEyNDUsMCAtNjIuMjMyMTcsMjcuOTE1MTIyIC02Mi4yMzIxNyw2Mi4yMzIxNzEgMCw2LjE0MjM2IDAuOTI4MDIsMTIuMDY1MzUgMi41OTMzOSwxNy42NzQ3OSBMIDE0OC43Nzg5LDE3Mi4wOTY1OSBDIDEzNi41ODE0NywxNTYuOTY0NjUgMTE5LjAxOTIzLDE0Ni4zOTkyOCA5OS4wMDk0NzMsMTQzLjE3NDIgbCAwLC0zNS4xOTEwOCBjIDI4LjE4OTYxNywtNS45MjA3IDQ5LjQyOTQ1NywtMzAuOTY2NzgyIDQ5LjQyOTQ1NywtNjAuODk0MTM2IDAsLTM0LjMxNzA1MiAtMjcuOTE5NzEsLTYyLjIzMjE3NCAtNjIuMjMyMTY3LC02Mi4yMzIxNzQgLTM0LjMxMjQ1OCwwIC02Mi4yMzIxNzQsMjcuOTE1MTIyIC02Mi4yMzIxNzQsNjIuMjMyMTc0IDAsMjkuNTI2NTE1IDIwLjY4OTY5NCw1NC4yNjM2NDYgNDguMzE1Mzg2LDYwLjYwNjk5NiBsIDAsMzUuNjQ4MiBjIC0zNy43MDE3ODIsNi42MTc4NiAtNjYuNDY1NjcxMiwzOS41MjEwNiAtNjYuNDY1NjcxMiw3OS4wOTE1MSAwLDM5Ljc2MzQgMjkuMDQ4NzI1Miw3Mi43ODcyIDY3LjAyMjcxMDIsNzkuMTc5OTQgbCAwLDM3LjY0MjA2IGMgLTI3LjkwODIzMSw2LjEzNDMyIC00OC44NzI0MjUsMzEuMDIzMDYgLTQ4Ljg3MjQyNSw2MC43NTA1NyAwLDM0LjMxNzA1IDI3LjkxOTcxNiw2Mi4yMzIxNyA2Mi4yMzIxNzQsNjIuMjMyMTcgMzQuMzEyNDU3LDAgNjIuMjMyMTY3LC0yNy45MTUxMiA2Mi4yMzIxNjcsLTYyLjIzMjE3IDAsLTI5LjcyNzUxIC0yMC45NjQxOSwtNTQuNjE2MjUgLTQ4Ljg3MjQxOCwtNjAuNzUwNTcgbCAwLC0zNy42NDMyIEMgMTE5LjE4MjMyLDI5OC4zMTEzIDEzNi40MjE4MiwyODcuOTU0OTcgMTQ4LjQ5NDA2LDI3My4xNTg0IGwgMjkuNDQwMzgsMjAuODM3ODYgYyAtMS42MzQzNyw1LjU1ODkgLTIuNTQ5NzUsMTEuNDIzMzIgLTIuNTQ5NzUsMTcuNTAzNjYgMCwzNC4zMTcwNSAyNy45MTk3Miw2Mi4yMzIxNyA2Mi4yMzIxNyw2Mi4yMzIxNyAzNC4zMTI0NiwwIDYyLjIzMjE4LC0yNy45MTUxMiA2Mi4yMzIxOCwtNjIuMjMyMTcgMCwtMzQuMzE3MDUgLTI3LjkxOTcyLC02Mi4yMzIxOCAtNjIuMjMyMTgsLTYyLjIzMjE4IGwgMCwwIHogbSAwLC0xNDUuNTEzNTMgYyAxNi42Mzg4MiwwIDMwLjE3MiwxMy41Mzg5MiAzMC4xNzIsMzAuMTczMTQgMCwxNi42MzQyMiAtMTMuNTMzMTgsMzAuMTcxOTkgLTMwLjE3MiwzMC4xNzE5OSAtMTYuNjM4ODEsMCAtMzAuMTcxOTksLTEzLjUzNzc3IC0zMC4xNzE5OSwtMzAuMTcxOTkgMCwtMTYuNjM0MjIgMTMuNTMzMTgsLTMwLjE3MzE0IDMwLjE3MTk5LC0zMC4xNzMxNCBsIDAsMCB6IE0gNTYuMDMzNjIyLDQ3LjA4ODk4NCBjIDAsLTE2LjYzNDIyIDEzLjUzNDMyNywtMzAuMTcxOTkyIDMwLjE3MzE0MSwtMzAuMTcxOTkyIDE2LjYzODgxNywwIDMwLjE3MTk4NywxMy41Mzc3NzIgMzAuMTcxOTg3LDMwLjE3MTk5MiAwLDE2LjYzNDIyIC0xMy41MzMxNywzMC4xNzE5OTEgLTMwLjE3MTk4NywzMC4xNzE5OTEgLTE2LjYzODgxNCwwIC0zMC4xNzMxNDEsLTEzLjUzNzc3MSAtMzAuMTczMTQxLC0zMC4xNzE5OTEgbCAwLDAgeiBNIDExNi4zNzg3NSw0MDAuMDA4MjYgYyAwLDE2LjYzNDIyIC0xMy41MzMxNywzMC4xNzE5OSAtMzAuMTcxOTg3LDMwLjE3MTk5IC0xNi42Mzg4MTQsMCAtMzAuMTczMTQxLC0xMy41Mzc3NyAtMzAuMTczMTQxLC0zMC4xNzE5OSAwLC0xNi42MzQyMiAxMy41MzQzMjcsLTMwLjE3MiAzMC4xNzMxNDEsLTMwLjE3MiAxNi42Mzg4MTcsMCAzMC4xNzE5ODcsMTMuNTM3NzggMzAuMTcxOTg3LDMwLjE3MiBsIDAsMCB6IE0gODYuMjA0NDY2LDI2NC41MTU2OCBjIC0yMy4yMDYxMzMsMCAtNDIuMDg0NTg4LC0xOC44NzUwMSAtNDIuMDg0NTg4LC00Mi4wNzk5OSAwLC0yMy4yMDYxMyAxOC44Nzg0NTUsLTQyLjA4NDU5IDQyLjA4NDU4OCwtNDIuMDg0NTkgMjMuMjA0OTg0LDAgNDIuMDgzNDM0LDE4Ljg3ODQ2IDQyLjA4MzQzNCw0Mi4wODQ1OSAwLDIzLjIwNDk4IC0xOC44Nzg0NSw0Mi4wNzk5OSAtNDIuMDgzNDM0LDQyLjA3OTk5IGwgMCwwIHogbSAxNTEuNDEyMzk0LDc3LjE1NzM4IGMgLTE2LjYzODgxLDAgLTMwLjE3MTk5LC0xMy41Mzg5MiAtMzAuMTcxOTksLTMwLjE3MzE0IDAsLTE2LjYzNDIyIDEzLjUzMzE4LC0zMC4xNzE5OSAzMC4xNzE5OSwtMzAuMTcxOTkgMTYuNjM4ODIsMCAzMC4xNzIsMTMuNTM3NzcgMzAuMTcyLDMwLjE3MTk5IDAsMTYuNjM0MjIgLTEzLjUzMzE4LDMwLjE3MzE0IC0zMC4xNzIsMzAuMTczMTQgbCAwLDAgeiIvPiYjeGE7ICA8L2c+JiN4YTs8L3N2Zz4=" parent="z8kIwJJlA8h6gfcJW_PZ-23" vertex="1">
          <mxGeometry x="19.64500000000001" y="36" width="20.72" height="34" as="geometry" />
        </mxCell>
        <mxCell id="z8kIwJJlA8h6gfcJW_PZ-26" value="" style="group" parent="1" vertex="1" connectable="0">
          <mxGeometry x="50" y="490" width="60" height="80" as="geometry" />
        </mxCell>
        <mxCell id="z8kIwJJlA8h6gfcJW_PZ-1" value="taco_shell_orders" style="shape=cylinder3;whiteSpace=wrap;html=1;boundedLbl=1;backgroundOutline=1;size=15;labelPosition=center;verticalLabelPosition=bottom;align=center;verticalAlign=top;" parent="z8kIwJJlA8h6gfcJW_PZ-26" vertex="1">
          <mxGeometry width="60" height="80" as="geometry" />
        </mxCell>
        <mxCell id="z8kIwJJlA8h6gfcJW_PZ-24" value="" style="shape=image;verticalLabelPosition=bottom;verticalAlign=top;imageAspect=0;aspect=fixed;image=data:image/svg+xml,PHN2ZyB4bWxucz0iaHR0cDovL3d3dy53My5vcmcvMjAwMC9zdmciIGlkPSJzdmcyIiBwcmVzZXJ2ZUFzcGVjdFJhdGlvPSJ4TWlkWU1pZCIgdmVyc2lvbj0iMS4xIiB2aWV3Qm94PSI2LjAwMDAwMDk1MzY3NDMxNiAwLjAwMDAwMTk4OTI1MzQwNTU1NDMzNjUgMTkuNzA5MDAzNDQ4NDg2MzI4IDMxLjk5OTk5ODA5MjY1MTM2NyIgaGVpZ2h0PSI2My45OTk5OTYxODUzMDI3MzQiIHdpZHRoPSIzOS40MTgwMDY4OTY5NzI2NTYiPiYjeGE7ICA8bWV0YWRhdGEgaWQ9Im1ldGFkYXRhMTIiPiYjeGE7ICAgICYjeGE7ICAgICAgJiN4YTsgICAgICAgIGltYWdlL3N2Zyt4bWwmI3hhOyAgICAgICAgJiN4YTsgICAgICAmI3hhOyAgICAmI3hhOyAgPC9tZXRhZGF0YT4mI3hhOyAgPGRlZnMgaWQ9ImRlZnMxMCIvPiYjeGE7ICAmI3hhOyAgPGcgdHJhbnNmb3JtPSJtYXRyaXgoMC4wNjcwMzE3OCwwLDAsMC4wNjcwMzIwNCw1LjYwOTU4NjYsMS4wMTUwODEpIiBpZD0iZzQiPiYjeGE7ICAgIDxwYXRoIHN0eWxlPSJmaWxsOiMwMDAwMDAiIGlkPSJwYXRoNiIgZD0ibSAyMzcuNjE2ODYsMjQ5LjI2Nzc0IGMgLTE4LjU5MDE3LDAgLTM1LjI1NjU1LDguMjM2MTQgLTQ2LjY2OTUzLDIxLjIwMzA5IEwgMTYxLjcwMjIsMjQ5Ljc2NzM2IGMgMy4xMDQ0OSwtOC41NDczOSA0Ljg4NzAyLC0xNy43MjUzMyA0Ljg4NzAyLC0yNy4zMzE2NyAwLC05LjQzOTggLTEuNzIwNTEsLTE4LjQ2MzgzIC00LjcyMjc4LC0yNi44ODQ4OSBsIDI5LjE3OTY2LC0yMC40ODQxIGMgMTEuNDExODQsMTIuOTAxNDggMjguMDM0NTcsMjEuMDkyODMgNDYuNTcwNzYsMjEuMDkyODMgMzQuMzEyNDYsMCA2Mi4yMzIxOCwtMjcuOTE1MTMgNjIuMjMyMTgsLTYyLjIzMjE4IDAsLTM0LjMxNzA0OSAtMjcuOTE5NzIsLTYyLjIzMjE3MSAtNjIuMjMyMTgsLTYyLjIzMjE3MSAtMzQuMzEyNDUsMCAtNjIuMjMyMTcsMjcuOTE1MTIyIC02Mi4yMzIxNyw2Mi4yMzIxNzEgMCw2LjE0MjM2IDAuOTI4MDIsMTIuMDY1MzUgMi41OTMzOSwxNy42NzQ3OSBMIDE0OC43Nzg5LDE3Mi4wOTY1OSBDIDEzNi41ODE0NywxNTYuOTY0NjUgMTE5LjAxOTIzLDE0Ni4zOTkyOCA5OS4wMDk0NzMsMTQzLjE3NDIgbCAwLC0zNS4xOTEwOCBjIDI4LjE4OTYxNywtNS45MjA3IDQ5LjQyOTQ1NywtMzAuOTY2NzgyIDQ5LjQyOTQ1NywtNjAuODk0MTM2IDAsLTM0LjMxNzA1MiAtMjcuOTE5NzEsLTYyLjIzMjE3NCAtNjIuMjMyMTY3LC02Mi4yMzIxNzQgLTM0LjMxMjQ1OCwwIC02Mi4yMzIxNzQsMjcuOTE1MTIyIC02Mi4yMzIxNzQsNjIuMjMyMTc0IDAsMjkuNTI2NTE1IDIwLjY4OTY5NCw1NC4yNjM2NDYgNDguMzE1Mzg2LDYwLjYwNjk5NiBsIDAsMzUuNjQ4MiBjIC0zNy43MDE3ODIsNi42MTc4NiAtNjYuNDY1NjcxMiwzOS41MjEwNiAtNjYuNDY1NjcxMiw3OS4wOTE1MSAwLDM5Ljc2MzQgMjkuMDQ4NzI1Miw3Mi43ODcyIDY3LjAyMjcxMDIsNzkuMTc5OTQgbCAwLDM3LjY0MjA2IGMgLTI3LjkwODIzMSw2LjEzNDMyIC00OC44NzI0MjUsMzEuMDIzMDYgLTQ4Ljg3MjQyNSw2MC43NTA1NyAwLDM0LjMxNzA1IDI3LjkxOTcxNiw2Mi4yMzIxNyA2Mi4yMzIxNzQsNjIuMjMyMTcgMzQuMzEyNDU3LDAgNjIuMjMyMTY3LC0yNy45MTUxMiA2Mi4yMzIxNjcsLTYyLjIzMjE3IDAsLTI5LjcyNzUxIC0yMC45NjQxOSwtNTQuNjE2MjUgLTQ4Ljg3MjQxOCwtNjAuNzUwNTcgbCAwLC0zNy42NDMyIEMgMTE5LjE4MjMyLDI5OC4zMTEzIDEzNi40MjE4MiwyODcuOTU0OTcgMTQ4LjQ5NDA2LDI3My4xNTg0IGwgMjkuNDQwMzgsMjAuODM3ODYgYyAtMS42MzQzNyw1LjU1ODkgLTIuNTQ5NzUsMTEuNDIzMzIgLTIuNTQ5NzUsMTcuNTAzNjYgMCwzNC4zMTcwNSAyNy45MTk3Miw2Mi4yMzIxNyA2Mi4yMzIxNyw2Mi4yMzIxNyAzNC4zMTI0NiwwIDYyLjIzMjE4LC0yNy45MTUxMiA2Mi4yMzIxOCwtNjIuMjMyMTcgMCwtMzQuMzE3MDUgLTI3LjkxOTcyLC02Mi4yMzIxOCAtNjIuMjMyMTgsLTYyLjIzMjE4IGwgMCwwIHogbSAwLC0xNDUuNTEzNTMgYyAxNi42Mzg4MiwwIDMwLjE3MiwxMy41Mzg5MiAzMC4xNzIsMzAuMTczMTQgMCwxNi42MzQyMiAtMTMuNTMzMTgsMzAuMTcxOTkgLTMwLjE3MiwzMC4xNzE5OSAtMTYuNjM4ODEsMCAtMzAuMTcxOTksLTEzLjUzNzc3IC0zMC4xNzE5OSwtMzAuMTcxOTkgMCwtMTYuNjM0MjIgMTMuNTMzMTgsLTMwLjE3MzE0IDMwLjE3MTk5LC0zMC4xNzMxNCBsIDAsMCB6IE0gNTYuMDMzNjIyLDQ3LjA4ODk4NCBjIDAsLTE2LjYzNDIyIDEzLjUzNDMyNywtMzAuMTcxOTkyIDMwLjE3MzE0MSwtMzAuMTcxOTkyIDE2LjYzODgxNywwIDMwLjE3MTk4NywxMy41Mzc3NzIgMzAuMTcxOTg3LDMwLjE3MTk5MiAwLDE2LjYzNDIyIC0xMy41MzMxNywzMC4xNzE5OTEgLTMwLjE3MTk4NywzMC4xNzE5OTEgLTE2LjYzODgxNCwwIC0zMC4xNzMxNDEsLTEzLjUzNzc3MSAtMzAuMTczMTQxLC0zMC4xNzE5OTEgbCAwLDAgeiBNIDExNi4zNzg3NSw0MDAuMDA4MjYgYyAwLDE2LjYzNDIyIC0xMy41MzMxNywzMC4xNzE5OSAtMzAuMTcxOTg3LDMwLjE3MTk5IC0xNi42Mzg4MTQsMCAtMzAuMTczMTQxLC0xMy41Mzc3NyAtMzAuMTczMTQxLC0zMC4xNzE5OSAwLC0xNi42MzQyMiAxMy41MzQzMjcsLTMwLjE3MiAzMC4xNzMxNDEsLTMwLjE3MiAxNi42Mzg4MTcsMCAzMC4xNzE5ODcsMTMuNTM3NzggMzAuMTcxOTg3LDMwLjE3MiBsIDAsMCB6IE0gODYuMjA0NDY2LDI2NC41MTU2OCBjIC0yMy4yMDYxMzMsMCAtNDIuMDg0NTg4LC0xOC44NzUwMSAtNDIuMDg0NTg4LC00Mi4wNzk5OSAwLC0yMy4yMDYxMyAxOC44Nzg0NTUsLTQyLjA4NDU5IDQyLjA4NDU4OCwtNDIuMDg0NTkgMjMuMjA0OTg0LDAgNDIuMDgzNDM0LDE4Ljg3ODQ2IDQyLjA4MzQzNCw0Mi4wODQ1OSAwLDIzLjIwNDk4IC0xOC44Nzg0NSw0Mi4wNzk5OSAtNDIuMDgzNDM0LDQyLjA3OTk5IGwgMCwwIHogbSAxNTEuNDEyMzk0LDc3LjE1NzM4IGMgLTE2LjYzODgxLDAgLTMwLjE3MTk5LC0xMy41Mzg5MiAtMzAuMTcxOTksLTMwLjE3MzE0IDAsLTE2LjYzNDIyIDEzLjUzMzE4LC0zMC4xNzE5OSAzMC4xNzE5OSwtMzAuMTcxOTkgMTYuNjM4ODIsMCAzMC4xNzIsMTMuNTM3NzcgMzAuMTcyLDMwLjE3MTk5IDAsMTYuNjM0MjIgLTEzLjUzMzE4LDMwLjE3MzE0IC0zMC4xNzIsMzAuMTczMTQgbCAwLDAgeiIvPiYjeGE7ICA8L2c+JiN4YTs8L3N2Zz4=" parent="z8kIwJJlA8h6gfcJW_PZ-26" vertex="1">
          <mxGeometry x="19.640000000000015" y="36" width="20.72" height="34" as="geometry" />
        </mxCell>
        <mxCell id="z8kIwJJlA8h6gfcJW_PZ-28" value="" style="group" parent="1" vertex="1" connectable="0">
          <mxGeometry x="50" y="610" width="60" height="80" as="geometry" />
        </mxCell>
        <mxCell id="z8kIwJJlA8h6gfcJW_PZ-3" value="tennessee_baked_chicken_orders" style="shape=cylinder3;whiteSpace=wrap;html=1;boundedLbl=1;backgroundOutline=1;size=15;labelPosition=center;verticalLabelPosition=bottom;align=center;verticalAlign=top;" parent="z8kIwJJlA8h6gfcJW_PZ-28" vertex="1">
          <mxGeometry width="60" height="80" as="geometry" />
        </mxCell>
        <mxCell id="z8kIwJJlA8h6gfcJW_PZ-27" value="" style="shape=image;verticalLabelPosition=bottom;verticalAlign=top;imageAspect=0;aspect=fixed;image=data:image/svg+xml,PHN2ZyB4bWxucz0iaHR0cDovL3d3dy53My5vcmcvMjAwMC9zdmciIGlkPSJzdmcyIiBwcmVzZXJ2ZUFzcGVjdFJhdGlvPSJ4TWlkWU1pZCIgdmVyc2lvbj0iMS4xIiB2aWV3Qm94PSI2LjAwMDAwMDk1MzY3NDMxNiAwLjAwMDAwMTk4OTI1MzQwNTU1NDMzNjUgMTkuNzA5MDAzNDQ4NDg2MzI4IDMxLjk5OTk5ODA5MjY1MTM2NyIgaGVpZ2h0PSI2My45OTk5OTYxODUzMDI3MzQiIHdpZHRoPSIzOS40MTgwMDY4OTY5NzI2NTYiPiYjeGE7ICA8bWV0YWRhdGEgaWQ9Im1ldGFkYXRhMTIiPiYjeGE7ICAgICYjeGE7ICAgICAgJiN4YTsgICAgICAgIGltYWdlL3N2Zyt4bWwmI3hhOyAgICAgICAgJiN4YTsgICAgICAmI3hhOyAgICAmI3hhOyAgPC9tZXRhZGF0YT4mI3hhOyAgPGRlZnMgaWQ9ImRlZnMxMCIvPiYjeGE7ICAmI3hhOyAgPGcgdHJhbnNmb3JtPSJtYXRyaXgoMC4wNjcwMzE3OCwwLDAsMC4wNjcwMzIwNCw1LjYwOTU4NjYsMS4wMTUwODEpIiBpZD0iZzQiPiYjeGE7ICAgIDxwYXRoIHN0eWxlPSJmaWxsOiMwMDAwMDAiIGlkPSJwYXRoNiIgZD0ibSAyMzcuNjE2ODYsMjQ5LjI2Nzc0IGMgLTE4LjU5MDE3LDAgLTM1LjI1NjU1LDguMjM2MTQgLTQ2LjY2OTUzLDIxLjIwMzA5IEwgMTYxLjcwMjIsMjQ5Ljc2NzM2IGMgMy4xMDQ0OSwtOC41NDczOSA0Ljg4NzAyLC0xNy43MjUzMyA0Ljg4NzAyLC0yNy4zMzE2NyAwLC05LjQzOTggLTEuNzIwNTEsLTE4LjQ2MzgzIC00LjcyMjc4LC0yNi44ODQ4OSBsIDI5LjE3OTY2LC0yMC40ODQxIGMgMTEuNDExODQsMTIuOTAxNDggMjguMDM0NTcsMjEuMDkyODMgNDYuNTcwNzYsMjEuMDkyODMgMzQuMzEyNDYsMCA2Mi4yMzIxOCwtMjcuOTE1MTMgNjIuMjMyMTgsLTYyLjIzMjE4IDAsLTM0LjMxNzA0OSAtMjcuOTE5NzIsLTYyLjIzMjE3MSAtNjIuMjMyMTgsLTYyLjIzMjE3MSAtMzQuMzEyNDUsMCAtNjIuMjMyMTcsMjcuOTE1MTIyIC02Mi4yMzIxNyw2Mi4yMzIxNzEgMCw2LjE0MjM2IDAuOTI4MDIsMTIuMDY1MzUgMi41OTMzOSwxNy42NzQ3OSBMIDE0OC43Nzg5LDE3Mi4wOTY1OSBDIDEzNi41ODE0NywxNTYuOTY0NjUgMTE5LjAxOTIzLDE0Ni4zOTkyOCA5OS4wMDk0NzMsMTQzLjE3NDIgbCAwLC0zNS4xOTEwOCBjIDI4LjE4OTYxNywtNS45MjA3IDQ5LjQyOTQ1NywtMzAuOTY2NzgyIDQ5LjQyOTQ1NywtNjAuODk0MTM2IDAsLTM0LjMxNzA1MiAtMjcuOTE5NzEsLTYyLjIzMjE3NCAtNjIuMjMyMTY3LC02Mi4yMzIxNzQgLTM0LjMxMjQ1OCwwIC02Mi4yMzIxNzQsMjcuOTE1MTIyIC02Mi4yMzIxNzQsNjIuMjMyMTc0IDAsMjkuNTI2NTE1IDIwLjY4OTY5NCw1NC4yNjM2NDYgNDguMzE1Mzg2LDYwLjYwNjk5NiBsIDAsMzUuNjQ4MiBjIC0zNy43MDE3ODIsNi42MTc4NiAtNjYuNDY1NjcxMiwzOS41MjEwNiAtNjYuNDY1NjcxMiw3OS4wOTE1MSAwLDM5Ljc2MzQgMjkuMDQ4NzI1Miw3Mi43ODcyIDY3LjAyMjcxMDIsNzkuMTc5OTQgbCAwLDM3LjY0MjA2IGMgLTI3LjkwODIzMSw2LjEzNDMyIC00OC44NzI0MjUsMzEuMDIzMDYgLTQ4Ljg3MjQyNSw2MC43NTA1NyAwLDM0LjMxNzA1IDI3LjkxOTcxNiw2Mi4yMzIxNyA2Mi4yMzIxNzQsNjIuMjMyMTcgMzQuMzEyNDU3LDAgNjIuMjMyMTY3LC0yNy45MTUxMiA2Mi4yMzIxNjcsLTYyLjIzMjE3IDAsLTI5LjcyNzUxIC0yMC45NjQxOSwtNTQuNjE2MjUgLTQ4Ljg3MjQxOCwtNjAuNzUwNTcgbCAwLC0zNy42NDMyIEMgMTE5LjE4MjMyLDI5OC4zMTEzIDEzNi40MjE4MiwyODcuOTU0OTcgMTQ4LjQ5NDA2LDI3My4xNTg0IGwgMjkuNDQwMzgsMjAuODM3ODYgYyAtMS42MzQzNyw1LjU1ODkgLTIuNTQ5NzUsMTEuNDIzMzIgLTIuNTQ5NzUsMTcuNTAzNjYgMCwzNC4zMTcwNSAyNy45MTk3Miw2Mi4yMzIxNyA2Mi4yMzIxNyw2Mi4yMzIxNyAzNC4zMTI0NiwwIDYyLjIzMjE4LC0yNy45MTUxMiA2Mi4yMzIxOCwtNjIuMjMyMTcgMCwtMzQuMzE3MDUgLTI3LjkxOTcyLC02Mi4yMzIxOCAtNjIuMjMyMTgsLTYyLjIzMjE4IGwgMCwwIHogbSAwLC0xNDUuNTEzNTMgYyAxNi42Mzg4MiwwIDMwLjE3MiwxMy41Mzg5MiAzMC4xNzIsMzAuMTczMTQgMCwxNi42MzQyMiAtMTMuNTMzMTgsMzAuMTcxOTkgLTMwLjE3MiwzMC4xNzE5OSAtMTYuNjM4ODEsMCAtMzAuMTcxOTksLTEzLjUzNzc3IC0zMC4xNzE5OSwtMzAuMTcxOTkgMCwtMTYuNjM0MjIgMTMuNTMzMTgsLTMwLjE3MzE0IDMwLjE3MTk5LC0zMC4xNzMxNCBsIDAsMCB6IE0gNTYuMDMzNjIyLDQ3LjA4ODk4NCBjIDAsLTE2LjYzNDIyIDEzLjUzNDMyNywtMzAuMTcxOTkyIDMwLjE3MzE0MSwtMzAuMTcxOTkyIDE2LjYzODgxNywwIDMwLjE3MTk4NywxMy41Mzc3NzIgMzAuMTcxOTg3LDMwLjE3MTk5MiAwLDE2LjYzNDIyIC0xMy41MzMxNywzMC4xNzE5OTEgLTMwLjE3MTk4NywzMC4xNzE5OTEgLTE2LjYzODgxNCwwIC0zMC4xNzMxNDEsLTEzLjUzNzc3MSAtMzAuMTczMTQxLC0zMC4xNzE5OTEgbCAwLDAgeiBNIDExNi4zNzg3NSw0MDAuMDA4MjYgYyAwLDE2LjYzNDIyIC0xMy41MzMxNywzMC4xNzE5OSAtMzAuMTcxOTg3LDMwLjE3MTk5IC0xNi42Mzg4MTQsMCAtMzAuMTczMTQxLC0xMy41Mzc3NyAtMzAuMTczMTQxLC0zMC4xNzE5OSAwLC0xNi42MzQyMiAxMy41MzQzMjcsLTMwLjE3MiAzMC4xNzMxNDEsLTMwLjE3MiAxNi42Mzg4MTcsMCAzMC4xNzE5ODcsMTMuNTM3NzggMzAuMTcxOTg3LDMwLjE3MiBsIDAsMCB6IE0gODYuMjA0NDY2LDI2NC41MTU2OCBjIC0yMy4yMDYxMzMsMCAtNDIuMDg0NTg4LC0xOC44NzUwMSAtNDIuMDg0NTg4LC00Mi4wNzk5OSAwLC0yMy4yMDYxMyAxOC44Nzg0NTUsLTQyLjA4NDU5IDQyLjA4NDU4OCwtNDIuMDg0NTkgMjMuMjA0OTg0LDAgNDIuMDgzNDM0LDE4Ljg3ODQ2IDQyLjA4MzQzNCw0Mi4wODQ1OSAwLDIzLjIwNDk4IC0xOC44Nzg0NSw0Mi4wNzk5OSAtNDIuMDgzNDM0LDQyLjA3OTk5IGwgMCwwIHogbSAxNTEuNDEyMzk0LDc3LjE1NzM4IGMgLTE2LjYzODgxLDAgLTMwLjE3MTk5LC0xMy41Mzg5MiAtMzAuMTcxOTksLTMwLjE3MzE0IDAsLTE2LjYzNDIyIDEzLjUzMzE4LC0zMC4xNzE5OSAzMC4xNzE5OSwtMzAuMTcxOTkgMTYuNjM4ODIsMCAzMC4xNzIsMTMuNTM3NzcgMzAuMTcyLDMwLjE3MTk5IDAsMTYuNjM0MjIgLTEzLjUzMzE4LDMwLjE3MzE0IC0zMC4xNzIsMzAuMTczMTQgbCAwLDAgeiIvPiYjeGE7ICA8L2c+JiN4YTs8L3N2Zz4=" parent="z8kIwJJlA8h6gfcJW_PZ-28" vertex="1">
          <mxGeometry x="19.639999999999986" y="36" width="20.72" height="34" as="geometry" />
        </mxCell>
        <mxCell id="z8kIwJJlA8h6gfcJW_PZ-32" value="" style="group" parent="1" vertex="1" connectable="0">
          <mxGeometry x="260" y="380" width="90" height="60" as="geometry" />
        </mxCell>
        <mxCell id="z8kIwJJlA8h6gfcJW_PZ-5" value="pizza_cabin_orders_stream" style="shape=step;perimeter=stepPerimeter;whiteSpace=wrap;html=1;fixedSize=1;labelPosition=center;verticalLabelPosition=bottom;align=center;verticalAlign=top;" parent="z8kIwJJlA8h6gfcJW_PZ-32" vertex="1">
          <mxGeometry width="90" height="60" as="geometry" />
        </mxCell>
        <mxCell id="z8kIwJJlA8h6gfcJW_PZ-30" value="ksqlDB" style="text;html=1;strokeColor=none;fillColor=none;align=center;verticalAlign=middle;whiteSpace=wrap;rounded=0;fontStyle=1" parent="z8kIwJJlA8h6gfcJW_PZ-32" vertex="1">
          <mxGeometry x="15" y="15" width="60" height="30" as="geometry" />
        </mxCell>
        <mxCell id="z8kIwJJlA8h6gfcJW_PZ-33" value="" style="group" parent="1" vertex="1" connectable="0">
          <mxGeometry x="260" y="500" width="90" height="60" as="geometry" />
        </mxCell>
        <mxCell id="z8kIwJJlA8h6gfcJW_PZ-8" value="taco_shell_orders_stream" style="shape=step;perimeter=stepPerimeter;whiteSpace=wrap;html=1;fixedSize=1;labelPosition=center;verticalLabelPosition=bottom;align=center;verticalAlign=top;" parent="z8kIwJJlA8h6gfcJW_PZ-33" vertex="1">
          <mxGeometry width="90" height="60" as="geometry" />
        </mxCell>
        <mxCell id="z8kIwJJlA8h6gfcJW_PZ-29" value="ksqlDB" style="text;html=1;strokeColor=none;fillColor=none;align=center;verticalAlign=middle;whiteSpace=wrap;rounded=0;fontStyle=1" parent="z8kIwJJlA8h6gfcJW_PZ-33" vertex="1">
          <mxGeometry x="15" y="15" width="60" height="30" as="geometry" />
        </mxCell>
        <mxCell id="z8kIwJJlA8h6gfcJW_PZ-34" value="" style="group" parent="1" vertex="1" connectable="0">
          <mxGeometry x="260" y="620" width="90" height="60" as="geometry" />
        </mxCell>
        <mxCell id="z8kIwJJlA8h6gfcJW_PZ-10" value="tennessee_baked_chicken_orders_stream" style="shape=step;perimeter=stepPerimeter;whiteSpace=wrap;html=1;fixedSize=1;labelPosition=center;verticalLabelPosition=bottom;align=center;verticalAlign=top;" parent="z8kIwJJlA8h6gfcJW_PZ-34" vertex="1">
          <mxGeometry width="90" height="60" as="geometry" />
        </mxCell>
        <mxCell id="z8kIwJJlA8h6gfcJW_PZ-31" value="ksqlDB" style="text;html=1;strokeColor=none;fillColor=none;align=center;verticalAlign=middle;whiteSpace=wrap;rounded=0;fontStyle=1" parent="z8kIwJJlA8h6gfcJW_PZ-34" vertex="1">
          <mxGeometry x="15" y="15" width="60" height="30" as="geometry" />
        </mxCell>
        <mxCell id="z8kIwJJlA8h6gfcJW_PZ-36" value="" style="group" parent="1" vertex="1" connectable="0">
          <mxGeometry x="480" y="500" width="90" height="60" as="geometry" />
        </mxCell>
        <mxCell id="z8kIwJJlA8h6gfcJW_PZ-13" value="all_orders_stream" style="shape=step;perimeter=stepPerimeter;whiteSpace=wrap;html=1;fixedSize=1;labelPosition=center;verticalLabelPosition=bottom;align=center;verticalAlign=top;" parent="z8kIwJJlA8h6gfcJW_PZ-36" vertex="1">
          <mxGeometry width="90" height="60" as="geometry" />
        </mxCell>
        <mxCell id="z8kIwJJlA8h6gfcJW_PZ-35" value="ksqlDB" style="text;html=1;strokeColor=none;fillColor=none;align=center;verticalAlign=middle;whiteSpace=wrap;rounded=0;fontStyle=1" parent="z8kIwJJlA8h6gfcJW_PZ-36" vertex="1">
          <mxGeometry x="15" y="15" width="60" height="30" as="geometry" />
        </mxCell>
        <mxCell id="z8kIwJJlA8h6gfcJW_PZ-38" value="" style="group" parent="1" vertex="1" connectable="0">
          <mxGeometry x="630" y="490" width="60" height="80" as="geometry" />
        </mxCell>
        <mxCell id="z8kIwJJlA8h6gfcJW_PZ-4" value="all_orders_stream" style="shape=cylinder3;whiteSpace=wrap;html=1;boundedLbl=1;backgroundOutline=1;size=15;labelPosition=center;verticalLabelPosition=bottom;align=center;verticalAlign=top;" parent="z8kIwJJlA8h6gfcJW_PZ-38" vertex="1">
          <mxGeometry width="60" height="80" as="geometry" />
        </mxCell>
        <mxCell id="z8kIwJJlA8h6gfcJW_PZ-37" value="" style="shape=image;verticalLabelPosition=bottom;verticalAlign=top;imageAspect=0;aspect=fixed;image=data:image/svg+xml,PHN2ZyB4bWxucz0iaHR0cDovL3d3dy53My5vcmcvMjAwMC9zdmciIGlkPSJzdmcyIiBwcmVzZXJ2ZUFzcGVjdFJhdGlvPSJ4TWlkWU1pZCIgdmVyc2lvbj0iMS4xIiB2aWV3Qm94PSI2LjAwMDAwMDk1MzY3NDMxNiAwLjAwMDAwMTk4OTI1MzQwNTU1NDMzNjUgMTkuNzA5MDAzNDQ4NDg2MzI4IDMxLjk5OTk5ODA5MjY1MTM2NyIgaGVpZ2h0PSI2My45OTk5OTYxODUzMDI3MzQiIHdpZHRoPSIzOS40MTgwMDY4OTY5NzI2NTYiPiYjeGE7ICA8bWV0YWRhdGEgaWQ9Im1ldGFkYXRhMTIiPiYjeGE7ICAgICYjeGE7ICAgICAgJiN4YTsgICAgICAgIGltYWdlL3N2Zyt4bWwmI3hhOyAgICAgICAgJiN4YTsgICAgICAmI3hhOyAgICAmI3hhOyAgPC9tZXRhZGF0YT4mI3hhOyAgPGRlZnMgaWQ9ImRlZnMxMCIvPiYjeGE7ICAmI3hhOyAgPGcgdHJhbnNmb3JtPSJtYXRyaXgoMC4wNjcwMzE3OCwwLDAsMC4wNjcwMzIwNCw1LjYwOTU4NjYsMS4wMTUwODEpIiBpZD0iZzQiPiYjeGE7ICAgIDxwYXRoIHN0eWxlPSJmaWxsOiMwMDAwMDAiIGlkPSJwYXRoNiIgZD0ibSAyMzcuNjE2ODYsMjQ5LjI2Nzc0IGMgLTE4LjU5MDE3LDAgLTM1LjI1NjU1LDguMjM2MTQgLTQ2LjY2OTUzLDIxLjIwMzA5IEwgMTYxLjcwMjIsMjQ5Ljc2NzM2IGMgMy4xMDQ0OSwtOC41NDczOSA0Ljg4NzAyLC0xNy43MjUzMyA0Ljg4NzAyLC0yNy4zMzE2NyAwLC05LjQzOTggLTEuNzIwNTEsLTE4LjQ2MzgzIC00LjcyMjc4LC0yNi44ODQ4OSBsIDI5LjE3OTY2LC0yMC40ODQxIGMgMTEuNDExODQsMTIuOTAxNDggMjguMDM0NTcsMjEuMDkyODMgNDYuNTcwNzYsMjEuMDkyODMgMzQuMzEyNDYsMCA2Mi4yMzIxOCwtMjcuOTE1MTMgNjIuMjMyMTgsLTYyLjIzMjE4IDAsLTM0LjMxNzA0OSAtMjcuOTE5NzIsLTYyLjIzMjE3MSAtNjIuMjMyMTgsLTYyLjIzMjE3MSAtMzQuMzEyNDUsMCAtNjIuMjMyMTcsMjcuOTE1MTIyIC02Mi4yMzIxNyw2Mi4yMzIxNzEgMCw2LjE0MjM2IDAuOTI4MDIsMTIuMDY1MzUgMi41OTMzOSwxNy42NzQ3OSBMIDE0OC43Nzg5LDE3Mi4wOTY1OSBDIDEzNi41ODE0NywxNTYuOTY0NjUgMTE5LjAxOTIzLDE0Ni4zOTkyOCA5OS4wMDk0NzMsMTQzLjE3NDIgbCAwLC0zNS4xOTEwOCBjIDI4LjE4OTYxNywtNS45MjA3IDQ5LjQyOTQ1NywtMzAuOTY2NzgyIDQ5LjQyOTQ1NywtNjAuODk0MTM2IDAsLTM0LjMxNzA1MiAtMjcuOTE5NzEsLTYyLjIzMjE3NCAtNjIuMjMyMTY3LC02Mi4yMzIxNzQgLTM0LjMxMjQ1OCwwIC02Mi4yMzIxNzQsMjcuOTE1MTIyIC02Mi4yMzIxNzQsNjIuMjMyMTc0IDAsMjkuNTI2NTE1IDIwLjY4OTY5NCw1NC4yNjM2NDYgNDguMzE1Mzg2LDYwLjYwNjk5NiBsIDAsMzUuNjQ4MiBjIC0zNy43MDE3ODIsNi42MTc4NiAtNjYuNDY1NjcxMiwzOS41MjEwNiAtNjYuNDY1NjcxMiw3OS4wOTE1MSAwLDM5Ljc2MzQgMjkuMDQ4NzI1Miw3Mi43ODcyIDY3LjAyMjcxMDIsNzkuMTc5OTQgbCAwLDM3LjY0MjA2IGMgLTI3LjkwODIzMSw2LjEzNDMyIC00OC44NzI0MjUsMzEuMDIzMDYgLTQ4Ljg3MjQyNSw2MC43NTA1NyAwLDM0LjMxNzA1IDI3LjkxOTcxNiw2Mi4yMzIxNyA2Mi4yMzIxNzQsNjIuMjMyMTcgMzQuMzEyNDU3LDAgNjIuMjMyMTY3LC0yNy45MTUxMiA2Mi4yMzIxNjcsLTYyLjIzMjE3IDAsLTI5LjcyNzUxIC0yMC45NjQxOSwtNTQuNjE2MjUgLTQ4Ljg3MjQxOCwtNjAuNzUwNTcgbCAwLC0zNy42NDMyIEMgMTE5LjE4MjMyLDI5OC4zMTEzIDEzNi40MjE4MiwyODcuOTU0OTcgMTQ4LjQ5NDA2LDI3My4xNTg0IGwgMjkuNDQwMzgsMjAuODM3ODYgYyAtMS42MzQzNyw1LjU1ODkgLTIuNTQ5NzUsMTEuNDIzMzIgLTIuNTQ5NzUsMTcuNTAzNjYgMCwzNC4zMTcwNSAyNy45MTk3Miw2Mi4yMzIxNyA2Mi4yMzIxNyw2Mi4yMzIxNyAzNC4zMTI0NiwwIDYyLjIzMjE4LC0yNy45MTUxMiA2Mi4yMzIxOCwtNjIuMjMyMTcgMCwtMzQuMzE3MDUgLTI3LjkxOTcyLC02Mi4yMzIxOCAtNjIuMjMyMTgsLTYyLjIzMjE4IGwgMCwwIHogbSAwLC0xNDUuNTEzNTMgYyAxNi42Mzg4MiwwIDMwLjE3MiwxMy41Mzg5MiAzMC4xNzIsMzAuMTczMTQgMCwxNi42MzQyMiAtMTMuNTMzMTgsMzAuMTcxOTkgLTMwLjE3MiwzMC4xNzE5OSAtMTYuNjM4ODEsMCAtMzAuMTcxOTksLTEzLjUzNzc3IC0zMC4xNzE5OSwtMzAuMTcxOTkgMCwtMTYuNjM0MjIgMTMuNTMzMTgsLTMwLjE3MzE0IDMwLjE3MTk5LC0zMC4xNzMxNCBsIDAsMCB6IE0gNTYuMDMzNjIyLDQ3LjA4ODk4NCBjIDAsLTE2LjYzNDIyIDEzLjUzNDMyNywtMzAuMTcxOTkyIDMwLjE3MzE0MSwtMzAuMTcxOTkyIDE2LjYzODgxNywwIDMwLjE3MTk4NywxMy41Mzc3NzIgMzAuMTcxOTg3LDMwLjE3MTk5MiAwLDE2LjYzNDIyIC0xMy41MzMxNywzMC4xNzE5OTEgLTMwLjE3MTk4NywzMC4xNzE5OTEgLTE2LjYzODgxNCwwIC0zMC4xNzMxNDEsLTEzLjUzNzc3MSAtMzAuMTczMTQxLC0zMC4xNzE5OTEgbCAwLDAgeiBNIDExNi4zNzg3NSw0MDAuMDA4MjYgYyAwLDE2LjYzNDIyIC0xMy41MzMxNywzMC4xNzE5OSAtMzAuMTcxOTg3LDMwLjE3MTk5IC0xNi42Mzg4MTQsMCAtMzAuMTczMTQxLC0xMy41Mzc3NyAtMzAuMTczMTQxLC0zMC4xNzE5OSAwLC0xNi42MzQyMiAxMy41MzQzMjcsLTMwLjE3MiAzMC4xNzMxNDEsLTMwLjE3MiAxNi42Mzg4MTcsMCAzMC4xNzE5ODcsMTMuNTM3NzggMzAuMTcxOTg3LDMwLjE3MiBsIDAsMCB6IE0gODYuMjA0NDY2LDI2NC41MTU2OCBjIC0yMy4yMDYxMzMsMCAtNDIuMDg0NTg4LC0xOC44NzUwMSAtNDIuMDg0NTg4LC00Mi4wNzk5OSAwLC0yMy4yMDYxMyAxOC44Nzg0NTUsLTQyLjA4NDU5IDQyLjA4NDU4OCwtNDIuMDg0NTkgMjMuMjA0OTg0LDAgNDIuMDgzNDM0LDE4Ljg3ODQ2IDQyLjA4MzQzNCw0Mi4wODQ1OSAwLDIzLjIwNDk4IC0xOC44Nzg0NSw0Mi4wNzk5OSAtNDIuMDgzNDM0LDQyLjA3OTk5IGwgMCwwIHogbSAxNTEuNDEyMzk0LDc3LjE1NzM4IGMgLTE2LjYzODgxLDAgLTMwLjE3MTk5LC0xMy41Mzg5MiAtMzAuMTcxOTksLTMwLjE3MzE0IDAsLTE2LjYzNDIyIDEzLjUzMzE4LC0zMC4xNzE5OSAzMC4xNzE5OSwtMzAuMTcxOTkgMTYuNjM4ODIsMCAzMC4xNzIsMTMuNTM3NzcgMzAuMTcyLDMwLjE3MTk5IDAsMTYuNjM0MjIgLTEzLjUzMzE4LDMwLjE3MzE0IC0zMC4xNzIsMzAuMTczMTQgbCAwLDAgeiIvPiYjeGE7ICA8L2c+JiN4YTs8L3N2Zz4=" parent="z8kIwJJlA8h6gfcJW_PZ-38" vertex="1">
          <mxGeometry x="19.639999999999986" y="36" width="20.72" height="34" as="geometry" />
        </mxCell>
        <mxCell id="z8kIwJJlA8h6gfcJW_PZ-43" value="" style="group" parent="1" vertex="1" connectable="0">
          <mxGeometry x="-250" y="500" width="60" height="60" as="geometry" />
        </mxCell>
        <mxCell id="z8kIwJJlA8h6gfcJW_PZ-41" value="Customer" style="rounded=1;whiteSpace=wrap;html=1;labelPosition=center;verticalLabelPosition=top;align=center;verticalAlign=bottom;" parent="z8kIwJJlA8h6gfcJW_PZ-43" vertex="1">
          <mxGeometry width="60" height="60" as="geometry" />
        </mxCell>
        <mxCell id="z8kIwJJlA8h6gfcJW_PZ-42" value="" style="shape=umlActor;verticalLabelPosition=bottom;verticalAlign=top;html=1;outlineConnect=0;" parent="z8kIwJJlA8h6gfcJW_PZ-43" vertex="1">
          <mxGeometry x="18.75" y="7.5" width="22.5" height="45" as="geometry" />
        </mxCell>
        <mxCell id="z8kIwJJlA8h6gfcJW_PZ-47" style="edgeStyle=orthogonalEdgeStyle;rounded=0;orthogonalLoop=1;jettySize=auto;html=1;exitX=1;exitY=0.5;exitDx=0;exitDy=0;" parent="1" source="z8kIwJJlA8h6gfcJW_PZ-44" target="z8kIwJJlA8h6gfcJW_PZ-1" edge="1">
          <mxGeometry relative="1" as="geometry" />
        </mxCell>
        <mxCell id="z8kIwJJlA8h6gfcJW_PZ-44" value="" style="image;aspect=fixed;perimeter=ellipsePerimeter;html=1;align=center;shadow=0;dashed=0;spacingTop=3;image=img/lib/active_directory/web_server.svg;" parent="1" vertex="1">
          <mxGeometry x="-90" y="505" width="40" height="50" as="geometry" />
        </mxCell>
        <mxCell id="z8kIwJJlA8h6gfcJW_PZ-45" value="Orders" style="edgeStyle=orthogonalEdgeStyle;rounded=0;orthogonalLoop=1;jettySize=auto;html=1;exitX=1;exitY=0.5;exitDx=0;exitDy=0;" parent="1" source="z8kIwJJlA8h6gfcJW_PZ-41" target="z8kIwJJlA8h6gfcJW_PZ-44" edge="1">
          <mxGeometry relative="1" as="geometry" />
        </mxCell>
        <mxCell id="z8kIwJJlA8h6gfcJW_PZ-46" style="edgeStyle=orthogonalEdgeStyle;rounded=0;orthogonalLoop=1;jettySize=auto;html=1;exitX=1;exitY=0.5;exitDx=0;exitDy=0;entryX=0;entryY=0.5;entryDx=0;entryDy=0;entryPerimeter=0;" parent="1" source="z8kIwJJlA8h6gfcJW_PZ-44" target="z8kIwJJlA8h6gfcJW_PZ-2" edge="1">
          <mxGeometry relative="1" as="geometry" />
        </mxCell>
        <mxCell id="z8kIwJJlA8h6gfcJW_PZ-48" style="edgeStyle=orthogonalEdgeStyle;rounded=0;orthogonalLoop=1;jettySize=auto;html=1;exitX=1;exitY=0.5;exitDx=0;exitDy=0;entryX=0;entryY=0.5;entryDx=0;entryDy=0;entryPerimeter=0;" parent="1" source="z8kIwJJlA8h6gfcJW_PZ-44" target="z8kIwJJlA8h6gfcJW_PZ-3" edge="1">
          <mxGeometry relative="1" as="geometry" />
        </mxCell>
        <mxCell id="z8kIwJJlA8h6gfcJW_PZ-49" value="" style="group" parent="1" vertex="1" connectable="0">
          <mxGeometry x="49.99500000000001" y="160" width="60" height="80" as="geometry" />
        </mxCell>
        <mxCell id="z8kIwJJlA8h6gfcJW_PZ-50" value="customers" style="shape=cylinder3;whiteSpace=wrap;html=1;boundedLbl=1;backgroundOutline=1;size=15;labelPosition=center;verticalLabelPosition=bottom;align=center;verticalAlign=top;" parent="z8kIwJJlA8h6gfcJW_PZ-49" vertex="1">
          <mxGeometry width="60" height="80" as="geometry" />
        </mxCell>
        <mxCell id="z8kIwJJlA8h6gfcJW_PZ-51" value="" style="shape=image;verticalLabelPosition=bottom;verticalAlign=top;imageAspect=0;aspect=fixed;image=data:image/svg+xml,PHN2ZyB4bWxucz0iaHR0cDovL3d3dy53My5vcmcvMjAwMC9zdmciIGlkPSJzdmcyIiBwcmVzZXJ2ZUFzcGVjdFJhdGlvPSJ4TWlkWU1pZCIgdmVyc2lvbj0iMS4xIiB2aWV3Qm94PSI2LjAwMDAwMDk1MzY3NDMxNiAwLjAwMDAwMTk4OTI1MzQwNTU1NDMzNjUgMTkuNzA5MDAzNDQ4NDg2MzI4IDMxLjk5OTk5ODA5MjY1MTM2NyIgaGVpZ2h0PSI2My45OTk5OTYxODUzMDI3MzQiIHdpZHRoPSIzOS40MTgwMDY4OTY5NzI2NTYiPiYjeGE7ICA8bWV0YWRhdGEgaWQ9Im1ldGFkYXRhMTIiPiYjeGE7ICAgICYjeGE7ICAgICAgJiN4YTsgICAgICAgIGltYWdlL3N2Zyt4bWwmI3hhOyAgICAgICAgJiN4YTsgICAgICAmI3hhOyAgICAmI3hhOyAgPC9tZXRhZGF0YT4mI3hhOyAgPGRlZnMgaWQ9ImRlZnMxMCIvPiYjeGE7ICAmI3hhOyAgPGcgdHJhbnNmb3JtPSJtYXRyaXgoMC4wNjcwMzE3OCwwLDAsMC4wNjcwMzIwNCw1LjYwOTU4NjYsMS4wMTUwODEpIiBpZD0iZzQiPiYjeGE7ICAgIDxwYXRoIHN0eWxlPSJmaWxsOiMwMDAwMDAiIGlkPSJwYXRoNiIgZD0ibSAyMzcuNjE2ODYsMjQ5LjI2Nzc0IGMgLTE4LjU5MDE3LDAgLTM1LjI1NjU1LDguMjM2MTQgLTQ2LjY2OTUzLDIxLjIwMzA5IEwgMTYxLjcwMjIsMjQ5Ljc2NzM2IGMgMy4xMDQ0OSwtOC41NDczOSA0Ljg4NzAyLC0xNy43MjUzMyA0Ljg4NzAyLC0yNy4zMzE2NyAwLC05LjQzOTggLTEuNzIwNTEsLTE4LjQ2MzgzIC00LjcyMjc4LC0yNi44ODQ4OSBsIDI5LjE3OTY2LC0yMC40ODQxIGMgMTEuNDExODQsMTIuOTAxNDggMjguMDM0NTcsMjEuMDkyODMgNDYuNTcwNzYsMjEuMDkyODMgMzQuMzEyNDYsMCA2Mi4yMzIxOCwtMjcuOTE1MTMgNjIuMjMyMTgsLTYyLjIzMjE4IDAsLTM0LjMxNzA0OSAtMjcuOTE5NzIsLTYyLjIzMjE3MSAtNjIuMjMyMTgsLTYyLjIzMjE3MSAtMzQuMzEyNDUsMCAtNjIuMjMyMTcsMjcuOTE1MTIyIC02Mi4yMzIxNyw2Mi4yMzIxNzEgMCw2LjE0MjM2IDAuOTI4MDIsMTIuMDY1MzUgMi41OTMzOSwxNy42NzQ3OSBMIDE0OC43Nzg5LDE3Mi4wOTY1OSBDIDEzNi41ODE0NywxNTYuOTY0NjUgMTE5LjAxOTIzLDE0Ni4zOTkyOCA5OS4wMDk0NzMsMTQzLjE3NDIgbCAwLC0zNS4xOTEwOCBjIDI4LjE4OTYxNywtNS45MjA3IDQ5LjQyOTQ1NywtMzAuOTY2NzgyIDQ5LjQyOTQ1NywtNjAuODk0MTM2IDAsLTM0LjMxNzA1MiAtMjcuOTE5NzEsLTYyLjIzMjE3NCAtNjIuMjMyMTY3LC02Mi4yMzIxNzQgLTM0LjMxMjQ1OCwwIC02Mi4yMzIxNzQsMjcuOTE1MTIyIC02Mi4yMzIxNzQsNjIuMjMyMTc0IDAsMjkuNTI2NTE1IDIwLjY4OTY5NCw1NC4yNjM2NDYgNDguMzE1Mzg2LDYwLjYwNjk5NiBsIDAsMzUuNjQ4MiBjIC0zNy43MDE3ODIsNi42MTc4NiAtNjYuNDY1NjcxMiwzOS41MjEwNiAtNjYuNDY1NjcxMiw3OS4wOTE1MSAwLDM5Ljc2MzQgMjkuMDQ4NzI1Miw3Mi43ODcyIDY3LjAyMjcxMDIsNzkuMTc5OTQgbCAwLDM3LjY0MjA2IGMgLTI3LjkwODIzMSw2LjEzNDMyIC00OC44NzI0MjUsMzEuMDIzMDYgLTQ4Ljg3MjQyNSw2MC43NTA1NyAwLDM0LjMxNzA1IDI3LjkxOTcxNiw2Mi4yMzIxNyA2Mi4yMzIxNzQsNjIuMjMyMTcgMzQuMzEyNDU3LDAgNjIuMjMyMTY3LC0yNy45MTUxMiA2Mi4yMzIxNjcsLTYyLjIzMjE3IDAsLTI5LjcyNzUxIC0yMC45NjQxOSwtNTQuNjE2MjUgLTQ4Ljg3MjQxOCwtNjAuNzUwNTcgbCAwLC0zNy42NDMyIEMgMTE5LjE4MjMyLDI5OC4zMTEzIDEzNi40MjE4MiwyODcuOTU0OTcgMTQ4LjQ5NDA2LDI3My4xNTg0IGwgMjkuNDQwMzgsMjAuODM3ODYgYyAtMS42MzQzNyw1LjU1ODkgLTIuNTQ5NzUsMTEuNDIzMzIgLTIuNTQ5NzUsMTcuNTAzNjYgMCwzNC4zMTcwNSAyNy45MTk3Miw2Mi4yMzIxNyA2Mi4yMzIxNyw2Mi4yMzIxNyAzNC4zMTI0NiwwIDYyLjIzMjE4LC0yNy45MTUxMiA2Mi4yMzIxOCwtNjIuMjMyMTcgMCwtMzQuMzE3MDUgLTI3LjkxOTcyLC02Mi4yMzIxOCAtNjIuMjMyMTgsLTYyLjIzMjE4IGwgMCwwIHogbSAwLC0xNDUuNTEzNTMgYyAxNi42Mzg4MiwwIDMwLjE3MiwxMy41Mzg5MiAzMC4xNzIsMzAuMTczMTQgMCwxNi42MzQyMiAtMTMuNTMzMTgsMzAuMTcxOTkgLTMwLjE3MiwzMC4xNzE5OSAtMTYuNjM4ODEsMCAtMzAuMTcxOTksLTEzLjUzNzc3IC0zMC4xNzE5OSwtMzAuMTcxOTkgMCwtMTYuNjM0MjIgMTMuNTMzMTgsLTMwLjE3MzE0IDMwLjE3MTk5LC0zMC4xNzMxNCBsIDAsMCB6IE0gNTYuMDMzNjIyLDQ3LjA4ODk4NCBjIDAsLTE2LjYzNDIyIDEzLjUzNDMyNywtMzAuMTcxOTkyIDMwLjE3MzE0MSwtMzAuMTcxOTkyIDE2LjYzODgxNywwIDMwLjE3MTk4NywxMy41Mzc3NzIgMzAuMTcxOTg3LDMwLjE3MTk5MiAwLDE2LjYzNDIyIC0xMy41MzMxNywzMC4xNzE5OTEgLTMwLjE3MTk4NywzMC4xNzE5OTEgLTE2LjYzODgxNCwwIC0zMC4xNzMxNDEsLTEzLjUzNzc3MSAtMzAuMTczMTQxLC0zMC4xNzE5OTEgbCAwLDAgeiBNIDExNi4zNzg3NSw0MDAuMDA4MjYgYyAwLDE2LjYzNDIyIC0xMy41MzMxNywzMC4xNzE5OSAtMzAuMTcxOTg3LDMwLjE3MTk5IC0xNi42Mzg4MTQsMCAtMzAuMTczMTQxLC0xMy41Mzc3NyAtMzAuMTczMTQxLC0zMC4xNzE5OSAwLC0xNi42MzQyMiAxMy41MzQzMjcsLTMwLjE3MiAzMC4xNzMxNDEsLTMwLjE3MiAxNi42Mzg4MTcsMCAzMC4xNzE5ODcsMTMuNTM3NzggMzAuMTcxOTg3LDMwLjE3MiBsIDAsMCB6IE0gODYuMjA0NDY2LDI2NC41MTU2OCBjIC0yMy4yMDYxMzMsMCAtNDIuMDg0NTg4LC0xOC44NzUwMSAtNDIuMDg0NTg4LC00Mi4wNzk5OSAwLC0yMy4yMDYxMyAxOC44Nzg0NTUsLTQyLjA4NDU5IDQyLjA4NDU4OCwtNDIuMDg0NTkgMjMuMjA0OTg0LDAgNDIuMDgzNDM0LDE4Ljg3ODQ2IDQyLjA4MzQzNCw0Mi4wODQ1OSAwLDIzLjIwNDk4IC0xOC44Nzg0NSw0Mi4wNzk5OSAtNDIuMDgzNDM0LDQyLjA3OTk5IGwgMCwwIHogbSAxNTEuNDEyMzk0LDc3LjE1NzM4IGMgLTE2LjYzODgxLDAgLTMwLjE3MTk5LC0xMy41Mzg5MiAtMzAuMTcxOTksLTMwLjE3MzE0IDAsLTE2LjYzNDIyIDEzLjUzMzE4LC0zMC4xNzE5OSAzMC4xNzE5OSwtMzAuMTcxOTkgMTYuNjM4ODIsMCAzMC4xNzIsMTMuNTM3NzcgMzAuMTcyLDMwLjE3MTk5IDAsMTYuNjM0MjIgLTEzLjUzMzE4LDMwLjE3MzE0IC0zMC4xNzIsMzAuMTczMTQgbCAwLDAgeiIvPiYjeGE7ICA8L2c+JiN4YTs8L3N2Zz4=" parent="z8kIwJJlA8h6gfcJW_PZ-49" vertex="1">
          <mxGeometry x="19.64500000000001" y="36" width="20.72" height="34" as="geometry" />
        </mxCell>
        <mxCell id="z8kIwJJlA8h6gfcJW_PZ-54" value="" style="group" parent="1" vertex="1" connectable="0">
          <mxGeometry x="360" y="160" width="60" height="80" as="geometry" />
        </mxCell>
        <mxCell id="z8kIwJJlA8h6gfcJW_PZ-52" value="customers" style="shape=cylinder3;whiteSpace=wrap;html=1;boundedLbl=1;backgroundOutline=1;size=15;labelPosition=center;verticalLabelPosition=bottom;align=center;verticalAlign=top;" parent="z8kIwJJlA8h6gfcJW_PZ-54" vertex="1">
          <mxGeometry width="60" height="80" as="geometry" />
        </mxCell>
        <mxCell id="z8kIwJJlA8h6gfcJW_PZ-53" value="" style="dashed=0;outlineConnect=0;html=1;align=center;labelPosition=center;verticalLabelPosition=bottom;verticalAlign=top;shape=mxgraph.weblogos.mongodb" parent="z8kIwJJlA8h6gfcJW_PZ-54" vertex="1">
          <mxGeometry x="19.69999999999999" y="32.45000000000002" width="20.6" height="43.1" as="geometry" />
        </mxCell>
        <mxCell id="z8kIwJJlA8h6gfcJW_PZ-58" value="" style="group" parent="1" vertex="1" connectable="0">
          <mxGeometry x="190" y="170" width="90" height="60" as="geometry" />
        </mxCell>
        <mxCell id="z8kIwJJlA8h6gfcJW_PZ-59" value="mongodb_customer_sink" style="shape=step;perimeter=stepPerimeter;whiteSpace=wrap;html=1;fixedSize=1;labelPosition=center;verticalLabelPosition=bottom;align=center;verticalAlign=top;" parent="z8kIwJJlA8h6gfcJW_PZ-58" vertex="1">
          <mxGeometry width="90" height="60" as="geometry" />
        </mxCell>
        <mxCell id="z8kIwJJlA8h6gfcJW_PZ-60" value="Kafka&lt;br&gt;Connect" style="text;html=1;strokeColor=none;fillColor=none;align=center;verticalAlign=middle;whiteSpace=wrap;rounded=0;fontStyle=1" parent="z8kIwJJlA8h6gfcJW_PZ-58" vertex="1">
          <mxGeometry x="15" y="15" width="60" height="30" as="geometry" />
        </mxCell>
        <mxCell id="z8kIwJJlA8h6gfcJW_PZ-65" style="edgeStyle=orthogonalEdgeStyle;rounded=0;orthogonalLoop=1;jettySize=auto;html=1;exitX=1;exitY=0.5;exitDx=0;exitDy=0;exitPerimeter=0;" parent="1" source="z8kIwJJlA8h6gfcJW_PZ-50" target="z8kIwJJlA8h6gfcJW_PZ-59" edge="1">
          <mxGeometry relative="1" as="geometry" />
        </mxCell>
        <mxCell id="z8kIwJJlA8h6gfcJW_PZ-66" value="Changes" style="edgeStyle=orthogonalEdgeStyle;rounded=0;orthogonalLoop=1;jettySize=auto;html=1;exitX=1;exitY=0.5;exitDx=0;exitDy=0;" parent="1" source="z8kIwJJlA8h6gfcJW_PZ-59" target="z8kIwJJlA8h6gfcJW_PZ-52" edge="1">
          <mxGeometry relative="1" as="geometry" />
        </mxCell>
        <mxCell id="z8kIwJJlA8h6gfcJW_PZ-71" value="" style="group" parent="1" vertex="1" connectable="0">
          <mxGeometry x="1010" y="560" width="60" height="80" as="geometry" />
        </mxCell>
        <mxCell id="XGPJvonO4xi0z36_7KU2-49" value="" style="group" vertex="1" connectable="0" parent="z8kIwJJlA8h6gfcJW_PZ-71">
          <mxGeometry width="60" height="80" as="geometry" />
        </mxCell>
        <mxCell id="z8kIwJJlA8h6gfcJW_PZ-68" value="all_orders" style="shape=cylinder3;whiteSpace=wrap;html=1;boundedLbl=1;backgroundOutline=1;size=15;labelPosition=center;verticalLabelPosition=bottom;align=center;verticalAlign=top;" parent="XGPJvonO4xi0z36_7KU2-49" vertex="1">
          <mxGeometry width="60" height="80" as="geometry" />
        </mxCell>
        <mxCell id="z8kIwJJlA8h6gfcJW_PZ-69" value="" style="dashed=0;outlineConnect=0;html=1;align=center;labelPosition=center;verticalLabelPosition=bottom;verticalAlign=top;shape=mxgraph.weblogos.mongodb" parent="XGPJvonO4xi0z36_7KU2-49" vertex="1">
          <mxGeometry x="19.700000000000045" y="32.450000000000045" width="20.6" height="43.1" as="geometry" />
        </mxCell>
        <mxCell id="z8kIwJJlA8h6gfcJW_PZ-72" value="" style="group" parent="1" vertex="1" connectable="0">
          <mxGeometry x="850" y="570" width="90" height="60" as="geometry" />
        </mxCell>
        <mxCell id="z8kIwJJlA8h6gfcJW_PZ-73" value="mongodb_orders_sink" style="shape=step;perimeter=stepPerimeter;whiteSpace=wrap;html=1;fixedSize=1;labelPosition=center;verticalLabelPosition=bottom;align=center;verticalAlign=top;" parent="z8kIwJJlA8h6gfcJW_PZ-72" vertex="1">
          <mxGeometry width="90" height="60" as="geometry" />
        </mxCell>
        <mxCell id="z8kIwJJlA8h6gfcJW_PZ-74" value="Kafka&lt;br&gt;Connect" style="text;html=1;strokeColor=none;fillColor=none;align=center;verticalAlign=middle;whiteSpace=wrap;rounded=0;fontStyle=1" parent="z8kIwJJlA8h6gfcJW_PZ-72" vertex="1">
          <mxGeometry x="15" y="15" width="60" height="30" as="geometry" />
        </mxCell>
        <mxCell id="z8kIwJJlA8h6gfcJW_PZ-76" style="edgeStyle=orthogonalEdgeStyle;rounded=0;orthogonalLoop=1;jettySize=auto;html=1;exitX=1;exitY=0.5;exitDx=0;exitDy=0;exitPerimeter=0;entryX=0;entryY=0.5;entryDx=0;entryDy=0;" parent="1" source="z8kIwJJlA8h6gfcJW_PZ-4" target="z8kIwJJlA8h6gfcJW_PZ-74" edge="1">
          <mxGeometry relative="1" as="geometry">
            <mxPoint x="730" y="500" as="targetPoint" />
          </mxGeometry>
        </mxCell>
        <mxCell id="z8kIwJJlA8h6gfcJW_PZ-77" style="edgeStyle=orthogonalEdgeStyle;rounded=0;orthogonalLoop=1;jettySize=auto;html=1;exitX=1;exitY=0.5;exitDx=0;exitDy=0;" parent="1" source="z8kIwJJlA8h6gfcJW_PZ-73" target="z8kIwJJlA8h6gfcJW_PZ-68" edge="1">
          <mxGeometry relative="1" as="geometry" />
        </mxCell>
        <mxCell id="z8kIwJJlA8h6gfcJW_PZ-78" value="" style="group" parent="1" vertex="1" connectable="0">
          <mxGeometry x="694" y="750" width="90" height="60" as="geometry" />
        </mxCell>
        <mxCell id="z8kIwJJlA8h6gfcJW_PZ-79" value="customer_order_status_tbl" style="shape=step;perimeter=stepPerimeter;whiteSpace=wrap;html=1;fixedSize=1;labelPosition=center;verticalLabelPosition=bottom;align=center;verticalAlign=top;flipH=1;" parent="z8kIwJJlA8h6gfcJW_PZ-78" vertex="1">
          <mxGeometry width="90" height="60" as="geometry" />
        </mxCell>
        <mxCell id="z8kIwJJlA8h6gfcJW_PZ-80" value="ksqlDB" style="text;html=1;strokeColor=none;fillColor=none;align=center;verticalAlign=middle;whiteSpace=wrap;rounded=0;fontStyle=1" parent="z8kIwJJlA8h6gfcJW_PZ-78" vertex="1">
          <mxGeometry x="15" y="15" width="60" height="30" as="geometry" />
        </mxCell>
        <mxCell id="z8kIwJJlA8h6gfcJW_PZ-81" style="edgeStyle=orthogonalEdgeStyle;rounded=0;orthogonalLoop=1;jettySize=auto;html=1;exitX=1;exitY=0.5;exitDx=0;exitDy=0;exitPerimeter=0;" parent="1" source="z8kIwJJlA8h6gfcJW_PZ-4" target="z8kIwJJlA8h6gfcJW_PZ-79" edge="1">
          <mxGeometry relative="1" as="geometry">
            <mxPoint x="760" y="690" as="targetPoint" />
          </mxGeometry>
        </mxCell>
        <mxCell id="z8kIwJJlA8h6gfcJW_PZ-85" value="" style="group" parent="1" vertex="1" connectable="0">
          <mxGeometry x="495" y="740" width="60" height="80" as="geometry" />
        </mxCell>
        <mxCell id="z8kIwJJlA8h6gfcJW_PZ-86" value="customer_order_statuses" style="shape=cylinder3;whiteSpace=wrap;html=1;boundedLbl=1;backgroundOutline=1;size=15;labelPosition=center;verticalLabelPosition=bottom;align=center;verticalAlign=top;" parent="z8kIwJJlA8h6gfcJW_PZ-85" vertex="1">
          <mxGeometry width="60" height="80" as="geometry" />
        </mxCell>
        <mxCell id="z8kIwJJlA8h6gfcJW_PZ-87" value="" style="shape=image;verticalLabelPosition=bottom;verticalAlign=top;imageAspect=0;aspect=fixed;image=data:image/svg+xml,PHN2ZyB4bWxucz0iaHR0cDovL3d3dy53My5vcmcvMjAwMC9zdmciIGlkPSJzdmcyIiBwcmVzZXJ2ZUFzcGVjdFJhdGlvPSJ4TWlkWU1pZCIgdmVyc2lvbj0iMS4xIiB2aWV3Qm94PSI2LjAwMDAwMDk1MzY3NDMxNiAwLjAwMDAwMTk4OTI1MzQwNTU1NDMzNjUgMTkuNzA5MDAzNDQ4NDg2MzI4IDMxLjk5OTk5ODA5MjY1MTM2NyIgaGVpZ2h0PSI2My45OTk5OTYxODUzMDI3MzQiIHdpZHRoPSIzOS40MTgwMDY4OTY5NzI2NTYiPiYjeGE7ICA8bWV0YWRhdGEgaWQ9Im1ldGFkYXRhMTIiPiYjeGE7ICAgICYjeGE7ICAgICAgJiN4YTsgICAgICAgIGltYWdlL3N2Zyt4bWwmI3hhOyAgICAgICAgJiN4YTsgICAgICAmI3hhOyAgICAmI3hhOyAgPC9tZXRhZGF0YT4mI3hhOyAgPGRlZnMgaWQ9ImRlZnMxMCIvPiYjeGE7ICAmI3hhOyAgPGcgdHJhbnNmb3JtPSJtYXRyaXgoMC4wNjcwMzE3OCwwLDAsMC4wNjcwMzIwNCw1LjYwOTU4NjYsMS4wMTUwODEpIiBpZD0iZzQiPiYjeGE7ICAgIDxwYXRoIHN0eWxlPSJmaWxsOiMwMDAwMDAiIGlkPSJwYXRoNiIgZD0ibSAyMzcuNjE2ODYsMjQ5LjI2Nzc0IGMgLTE4LjU5MDE3LDAgLTM1LjI1NjU1LDguMjM2MTQgLTQ2LjY2OTUzLDIxLjIwMzA5IEwgMTYxLjcwMjIsMjQ5Ljc2NzM2IGMgMy4xMDQ0OSwtOC41NDczOSA0Ljg4NzAyLC0xNy43MjUzMyA0Ljg4NzAyLC0yNy4zMzE2NyAwLC05LjQzOTggLTEuNzIwNTEsLTE4LjQ2MzgzIC00LjcyMjc4LC0yNi44ODQ4OSBsIDI5LjE3OTY2LC0yMC40ODQxIGMgMTEuNDExODQsMTIuOTAxNDggMjguMDM0NTcsMjEuMDkyODMgNDYuNTcwNzYsMjEuMDkyODMgMzQuMzEyNDYsMCA2Mi4yMzIxOCwtMjcuOTE1MTMgNjIuMjMyMTgsLTYyLjIzMjE4IDAsLTM0LjMxNzA0OSAtMjcuOTE5NzIsLTYyLjIzMjE3MSAtNjIuMjMyMTgsLTYyLjIzMjE3MSAtMzQuMzEyNDUsMCAtNjIuMjMyMTcsMjcuOTE1MTIyIC02Mi4yMzIxNyw2Mi4yMzIxNzEgMCw2LjE0MjM2IDAuOTI4MDIsMTIuMDY1MzUgMi41OTMzOSwxNy42NzQ3OSBMIDE0OC43Nzg5LDE3Mi4wOTY1OSBDIDEzNi41ODE0NywxNTYuOTY0NjUgMTE5LjAxOTIzLDE0Ni4zOTkyOCA5OS4wMDk0NzMsMTQzLjE3NDIgbCAwLC0zNS4xOTEwOCBjIDI4LjE4OTYxNywtNS45MjA3IDQ5LjQyOTQ1NywtMzAuOTY2NzgyIDQ5LjQyOTQ1NywtNjAuODk0MTM2IDAsLTM0LjMxNzA1MiAtMjcuOTE5NzEsLTYyLjIzMjE3NCAtNjIuMjMyMTY3LC02Mi4yMzIxNzQgLTM0LjMxMjQ1OCwwIC02Mi4yMzIxNzQsMjcuOTE1MTIyIC02Mi4yMzIxNzQsNjIuMjMyMTc0IDAsMjkuNTI2NTE1IDIwLjY4OTY5NCw1NC4yNjM2NDYgNDguMzE1Mzg2LDYwLjYwNjk5NiBsIDAsMzUuNjQ4MiBjIC0zNy43MDE3ODIsNi42MTc4NiAtNjYuNDY1NjcxMiwzOS41MjEwNiAtNjYuNDY1NjcxMiw3OS4wOTE1MSAwLDM5Ljc2MzQgMjkuMDQ4NzI1Miw3Mi43ODcyIDY3LjAyMjcxMDIsNzkuMTc5OTQgbCAwLDM3LjY0MjA2IGMgLTI3LjkwODIzMSw2LjEzNDMyIC00OC44NzI0MjUsMzEuMDIzMDYgLTQ4Ljg3MjQyNSw2MC43NTA1NyAwLDM0LjMxNzA1IDI3LjkxOTcxNiw2Mi4yMzIxNyA2Mi4yMzIxNzQsNjIuMjMyMTcgMzQuMzEyNDU3LDAgNjIuMjMyMTY3LC0yNy45MTUxMiA2Mi4yMzIxNjcsLTYyLjIzMjE3IDAsLTI5LjcyNzUxIC0yMC45NjQxOSwtNTQuNjE2MjUgLTQ4Ljg3MjQxOCwtNjAuNzUwNTcgbCAwLC0zNy42NDMyIEMgMTE5LjE4MjMyLDI5OC4zMTEzIDEzNi40MjE4MiwyODcuOTU0OTcgMTQ4LjQ5NDA2LDI3My4xNTg0IGwgMjkuNDQwMzgsMjAuODM3ODYgYyAtMS42MzQzNyw1LjU1ODkgLTIuNTQ5NzUsMTEuNDIzMzIgLTIuNTQ5NzUsMTcuNTAzNjYgMCwzNC4zMTcwNSAyNy45MTk3Miw2Mi4yMzIxNyA2Mi4yMzIxNyw2Mi4yMzIxNyAzNC4zMTI0NiwwIDYyLjIzMjE4LC0yNy45MTUxMiA2Mi4yMzIxOCwtNjIuMjMyMTcgMCwtMzQuMzE3MDUgLTI3LjkxOTcyLC02Mi4yMzIxOCAtNjIuMjMyMTgsLTYyLjIzMjE4IGwgMCwwIHogbSAwLC0xNDUuNTEzNTMgYyAxNi42Mzg4MiwwIDMwLjE3MiwxMy41Mzg5MiAzMC4xNzIsMzAuMTczMTQgMCwxNi42MzQyMiAtMTMuNTMzMTgsMzAuMTcxOTkgLTMwLjE3MiwzMC4xNzE5OSAtMTYuNjM4ODEsMCAtMzAuMTcxOTksLTEzLjUzNzc3IC0zMC4xNzE5OSwtMzAuMTcxOTkgMCwtMTYuNjM0MjIgMTMuNTMzMTgsLTMwLjE3MzE0IDMwLjE3MTk5LC0zMC4xNzMxNCBsIDAsMCB6IE0gNTYuMDMzNjIyLDQ3LjA4ODk4NCBjIDAsLTE2LjYzNDIyIDEzLjUzNDMyNywtMzAuMTcxOTkyIDMwLjE3MzE0MSwtMzAuMTcxOTkyIDE2LjYzODgxNywwIDMwLjE3MTk4NywxMy41Mzc3NzIgMzAuMTcxOTg3LDMwLjE3MTk5MiAwLDE2LjYzNDIyIC0xMy41MzMxNywzMC4xNzE5OTEgLTMwLjE3MTk4NywzMC4xNzE5OTEgLTE2LjYzODgxNCwwIC0zMC4xNzMxNDEsLTEzLjUzNzc3MSAtMzAuMTczMTQxLC0zMC4xNzE5OTEgbCAwLDAgeiBNIDExNi4zNzg3NSw0MDAuMDA4MjYgYyAwLDE2LjYzNDIyIC0xMy41MzMxNywzMC4xNzE5OSAtMzAuMTcxOTg3LDMwLjE3MTk5IC0xNi42Mzg4MTQsMCAtMzAuMTczMTQxLC0xMy41Mzc3NyAtMzAuMTczMTQxLC0zMC4xNzE5OSAwLC0xNi42MzQyMiAxMy41MzQzMjcsLTMwLjE3MiAzMC4xNzMxNDEsLTMwLjE3MiAxNi42Mzg4MTcsMCAzMC4xNzE5ODcsMTMuNTM3NzggMzAuMTcxOTg3LDMwLjE3MiBsIDAsMCB6IE0gODYuMjA0NDY2LDI2NC41MTU2OCBjIC0yMy4yMDYxMzMsMCAtNDIuMDg0NTg4LC0xOC44NzUwMSAtNDIuMDg0NTg4LC00Mi4wNzk5OSAwLC0yMy4yMDYxMyAxOC44Nzg0NTUsLTQyLjA4NDU5IDQyLjA4NDU4OCwtNDIuMDg0NTkgMjMuMjA0OTg0LDAgNDIuMDgzNDM0LDE4Ljg3ODQ2IDQyLjA4MzQzNCw0Mi4wODQ1OSAwLDIzLjIwNDk4IC0xOC44Nzg0NSw0Mi4wNzk5OSAtNDIuMDgzNDM0LDQyLjA3OTk5IGwgMCwwIHogbSAxNTEuNDEyMzk0LDc3LjE1NzM4IGMgLTE2LjYzODgxLDAgLTMwLjE3MTk5LC0xMy41Mzg5MiAtMzAuMTcxOTksLTMwLjE3MzE0IDAsLTE2LjYzNDIyIDEzLjUzMzE4LC0zMC4xNzE5OSAzMC4xNzE5OSwtMzAuMTcxOTkgMTYuNjM4ODIsMCAzMC4xNzIsMTMuNTM3NzcgMzAuMTcyLDMwLjE3MTk5IDAsMTYuNjM0MjIgLTEzLjUzMzE4LDMwLjE3MzE0IC0zMC4xNzIsMzAuMTczMTQgbCAwLDAgeiIvPiYjeGE7ICA8L2c+JiN4YTs8L3N2Zz4=" parent="z8kIwJJlA8h6gfcJW_PZ-85" vertex="1">
          <mxGeometry x="19.639999999999986" y="36" width="20.72" height="34" as="geometry" />
        </mxCell>
        <mxCell id="z8kIwJJlA8h6gfcJW_PZ-89" value="status updates" style="edgeStyle=orthogonalEdgeStyle;rounded=0;orthogonalLoop=1;jettySize=auto;html=1;exitX=0;exitY=0.5;exitDx=0;exitDy=0;" parent="1" source="z8kIwJJlA8h6gfcJW_PZ-79" target="z8kIwJJlA8h6gfcJW_PZ-86" edge="1">
          <mxGeometry relative="1" as="geometry" />
        </mxCell>
        <mxCell id="z8kIwJJlA8h6gfcJW_PZ-91" value="Customer update" style="edgeStyle=orthogonalEdgeStyle;rounded=0;orthogonalLoop=1;jettySize=auto;html=1;exitX=0;exitY=0.5;exitDx=0;exitDy=0;exitPerimeter=0;entryX=0.5;entryY=1;entryDx=0;entryDy=0;" parent="1" source="z8kIwJJlA8h6gfcJW_PZ-86" target="z8kIwJJlA8h6gfcJW_PZ-41" edge="1">
          <mxGeometry relative="1" as="geometry" />
        </mxCell>
        <mxCell id="z8kIwJJlA8h6gfcJW_PZ-92" value="ksqlDB" style="group" parent="1" vertex="1" connectable="0">
          <mxGeometry x="910" y="440" width="90" height="60" as="geometry" />
        </mxCell>
        <mxCell id="z8kIwJJlA8h6gfcJW_PZ-93" value="order_statuses_internal" style="shape=step;perimeter=stepPerimeter;whiteSpace=wrap;html=1;fixedSize=1;labelPosition=center;verticalLabelPosition=bottom;align=center;verticalAlign=top;" parent="z8kIwJJlA8h6gfcJW_PZ-92" vertex="1">
          <mxGeometry width="90" height="60" as="geometry" />
        </mxCell>
        <mxCell id="z8kIwJJlA8h6gfcJW_PZ-94" value="ksqlDB&lt;br&gt;table" style="text;html=1;strokeColor=none;fillColor=none;align=center;verticalAlign=middle;whiteSpace=wrap;rounded=0;fontStyle=1" parent="z8kIwJJlA8h6gfcJW_PZ-92" vertex="1">
          <mxGeometry x="15" y="15" width="60" height="30" as="geometry" />
        </mxCell>
        <mxCell id="z8kIwJJlA8h6gfcJW_PZ-95" style="edgeStyle=orthogonalEdgeStyle;rounded=0;orthogonalLoop=1;jettySize=auto;html=1;exitX=1;exitY=0.5;exitDx=0;exitDy=0;exitPerimeter=0;" parent="1" source="z8kIwJJlA8h6gfcJW_PZ-4" target="z8kIwJJlA8h6gfcJW_PZ-93" edge="1">
          <mxGeometry relative="1" as="geometry">
            <mxPoint x="690" y="360" as="targetPoint" />
            <Array as="points">
              <mxPoint x="780" y="530" />
              <mxPoint x="780" y="350" />
            </Array>
          </mxGeometry>
        </mxCell>
        <mxCell id="z8kIwJJlA8h6gfcJW_PZ-99" value="ddd" style="group" parent="1" vertex="1" connectable="0">
          <mxGeometry x="1170" y="420" width="60" height="80" as="geometry" />
        </mxCell>
        <mxCell id="z8kIwJJlA8h6gfcJW_PZ-100" value="order_statuses_internal" style="shape=cylinder3;whiteSpace=wrap;html=1;boundedLbl=1;backgroundOutline=1;size=15;labelPosition=center;verticalLabelPosition=bottom;align=center;verticalAlign=top;" parent="z8kIwJJlA8h6gfcJW_PZ-99" vertex="1">
          <mxGeometry width="60" height="80" as="geometry" />
        </mxCell>
        <mxCell id="z8kIwJJlA8h6gfcJW_PZ-101" value="" style="shape=image;verticalLabelPosition=bottom;verticalAlign=top;imageAspect=0;aspect=fixed;image=data:image/svg+xml,PHN2ZyB4bWxucz0iaHR0cDovL3d3dy53My5vcmcvMjAwMC9zdmciIGlkPSJzdmcyIiBwcmVzZXJ2ZUFzcGVjdFJhdGlvPSJ4TWlkWU1pZCIgdmVyc2lvbj0iMS4xIiB2aWV3Qm94PSI2LjAwMDAwMDk1MzY3NDMxNiAwLjAwMDAwMTk4OTI1MzQwNTU1NDMzNjUgMTkuNzA5MDAzNDQ4NDg2MzI4IDMxLjk5OTk5ODA5MjY1MTM2NyIgaGVpZ2h0PSI2My45OTk5OTYxODUzMDI3MzQiIHdpZHRoPSIzOS40MTgwMDY4OTY5NzI2NTYiPiYjeGE7ICA8bWV0YWRhdGEgaWQ9Im1ldGFkYXRhMTIiPiYjeGE7ICAgICYjeGE7ICAgICAgJiN4YTsgICAgICAgIGltYWdlL3N2Zyt4bWwmI3hhOyAgICAgICAgJiN4YTsgICAgICAmI3hhOyAgICAmI3hhOyAgPC9tZXRhZGF0YT4mI3hhOyAgPGRlZnMgaWQ9ImRlZnMxMCIvPiYjeGE7ICAmI3hhOyAgPGcgdHJhbnNmb3JtPSJtYXRyaXgoMC4wNjcwMzE3OCwwLDAsMC4wNjcwMzIwNCw1LjYwOTU4NjYsMS4wMTUwODEpIiBpZD0iZzQiPiYjeGE7ICAgIDxwYXRoIHN0eWxlPSJmaWxsOiMwMDAwMDAiIGlkPSJwYXRoNiIgZD0ibSAyMzcuNjE2ODYsMjQ5LjI2Nzc0IGMgLTE4LjU5MDE3LDAgLTM1LjI1NjU1LDguMjM2MTQgLTQ2LjY2OTUzLDIxLjIwMzA5IEwgMTYxLjcwMjIsMjQ5Ljc2NzM2IGMgMy4xMDQ0OSwtOC41NDczOSA0Ljg4NzAyLC0xNy43MjUzMyA0Ljg4NzAyLC0yNy4zMzE2NyAwLC05LjQzOTggLTEuNzIwNTEsLTE4LjQ2MzgzIC00LjcyMjc4LC0yNi44ODQ4OSBsIDI5LjE3OTY2LC0yMC40ODQxIGMgMTEuNDExODQsMTIuOTAxNDggMjguMDM0NTcsMjEuMDkyODMgNDYuNTcwNzYsMjEuMDkyODMgMzQuMzEyNDYsMCA2Mi4yMzIxOCwtMjcuOTE1MTMgNjIuMjMyMTgsLTYyLjIzMjE4IDAsLTM0LjMxNzA0OSAtMjcuOTE5NzIsLTYyLjIzMjE3MSAtNjIuMjMyMTgsLTYyLjIzMjE3MSAtMzQuMzEyNDUsMCAtNjIuMjMyMTcsMjcuOTE1MTIyIC02Mi4yMzIxNyw2Mi4yMzIxNzEgMCw2LjE0MjM2IDAuOTI4MDIsMTIuMDY1MzUgMi41OTMzOSwxNy42NzQ3OSBMIDE0OC43Nzg5LDE3Mi4wOTY1OSBDIDEzNi41ODE0NywxNTYuOTY0NjUgMTE5LjAxOTIzLDE0Ni4zOTkyOCA5OS4wMDk0NzMsMTQzLjE3NDIgbCAwLC0zNS4xOTEwOCBjIDI4LjE4OTYxNywtNS45MjA3IDQ5LjQyOTQ1NywtMzAuOTY2NzgyIDQ5LjQyOTQ1NywtNjAuODk0MTM2IDAsLTM0LjMxNzA1MiAtMjcuOTE5NzEsLTYyLjIzMjE3NCAtNjIuMjMyMTY3LC02Mi4yMzIxNzQgLTM0LjMxMjQ1OCwwIC02Mi4yMzIxNzQsMjcuOTE1MTIyIC02Mi4yMzIxNzQsNjIuMjMyMTc0IDAsMjkuNTI2NTE1IDIwLjY4OTY5NCw1NC4yNjM2NDYgNDguMzE1Mzg2LDYwLjYwNjk5NiBsIDAsMzUuNjQ4MiBjIC0zNy43MDE3ODIsNi42MTc4NiAtNjYuNDY1NjcxMiwzOS41MjEwNiAtNjYuNDY1NjcxMiw3OS4wOTE1MSAwLDM5Ljc2MzQgMjkuMDQ4NzI1Miw3Mi43ODcyIDY3LjAyMjcxMDIsNzkuMTc5OTQgbCAwLDM3LjY0MjA2IGMgLTI3LjkwODIzMSw2LjEzNDMyIC00OC44NzI0MjUsMzEuMDIzMDYgLTQ4Ljg3MjQyNSw2MC43NTA1NyAwLDM0LjMxNzA1IDI3LjkxOTcxNiw2Mi4yMzIxNyA2Mi4yMzIxNzQsNjIuMjMyMTcgMzQuMzEyNDU3LDAgNjIuMjMyMTY3LC0yNy45MTUxMiA2Mi4yMzIxNjcsLTYyLjIzMjE3IDAsLTI5LjcyNzUxIC0yMC45NjQxOSwtNTQuNjE2MjUgLTQ4Ljg3MjQxOCwtNjAuNzUwNTcgbCAwLC0zNy42NDMyIEMgMTE5LjE4MjMyLDI5OC4zMTEzIDEzNi40MjE4MiwyODcuOTU0OTcgMTQ4LjQ5NDA2LDI3My4xNTg0IGwgMjkuNDQwMzgsMjAuODM3ODYgYyAtMS42MzQzNyw1LjU1ODkgLTIuNTQ5NzUsMTEuNDIzMzIgLTIuNTQ5NzUsMTcuNTAzNjYgMCwzNC4zMTcwNSAyNy45MTk3Miw2Mi4yMzIxNyA2Mi4yMzIxNyw2Mi4yMzIxNyAzNC4zMTI0NiwwIDYyLjIzMjE4LC0yNy45MTUxMiA2Mi4yMzIxOCwtNjIuMjMyMTcgMCwtMzQuMzE3MDUgLTI3LjkxOTcyLC02Mi4yMzIxOCAtNjIuMjMyMTgsLTYyLjIzMjE4IGwgMCwwIHogbSAwLC0xNDUuNTEzNTMgYyAxNi42Mzg4MiwwIDMwLjE3MiwxMy41Mzg5MiAzMC4xNzIsMzAuMTczMTQgMCwxNi42MzQyMiAtMTMuNTMzMTgsMzAuMTcxOTkgLTMwLjE3MiwzMC4xNzE5OSAtMTYuNjM4ODEsMCAtMzAuMTcxOTksLTEzLjUzNzc3IC0zMC4xNzE5OSwtMzAuMTcxOTkgMCwtMTYuNjM0MjIgMTMuNTMzMTgsLTMwLjE3MzE0IDMwLjE3MTk5LC0zMC4xNzMxNCBsIDAsMCB6IE0gNTYuMDMzNjIyLDQ3LjA4ODk4NCBjIDAsLTE2LjYzNDIyIDEzLjUzNDMyNywtMzAuMTcxOTkyIDMwLjE3MzE0MSwtMzAuMTcxOTkyIDE2LjYzODgxNywwIDMwLjE3MTk4NywxMy41Mzc3NzIgMzAuMTcxOTg3LDMwLjE3MTk5MiAwLDE2LjYzNDIyIC0xMy41MzMxNywzMC4xNzE5OTEgLTMwLjE3MTk4NywzMC4xNzE5OTEgLTE2LjYzODgxNCwwIC0zMC4xNzMxNDEsLTEzLjUzNzc3MSAtMzAuMTczMTQxLC0zMC4xNzE5OTEgbCAwLDAgeiBNIDExNi4zNzg3NSw0MDAuMDA4MjYgYyAwLDE2LjYzNDIyIC0xMy41MzMxNywzMC4xNzE5OSAtMzAuMTcxOTg3LDMwLjE3MTk5IC0xNi42Mzg4MTQsMCAtMzAuMTczMTQxLC0xMy41Mzc3NyAtMzAuMTczMTQxLC0zMC4xNzE5OSAwLC0xNi42MzQyMiAxMy41MzQzMjcsLTMwLjE3MiAzMC4xNzMxNDEsLTMwLjE3MiAxNi42Mzg4MTcsMCAzMC4xNzE5ODcsMTMuNTM3NzggMzAuMTcxOTg3LDMwLjE3MiBsIDAsMCB6IE0gODYuMjA0NDY2LDI2NC41MTU2OCBjIC0yMy4yMDYxMzMsMCAtNDIuMDg0NTg4LC0xOC44NzUwMSAtNDIuMDg0NTg4LC00Mi4wNzk5OSAwLC0yMy4yMDYxMyAxOC44Nzg0NTUsLTQyLjA4NDU5IDQyLjA4NDU4OCwtNDIuMDg0NTkgMjMuMjA0OTg0LDAgNDIuMDgzNDM0LDE4Ljg3ODQ2IDQyLjA4MzQzNCw0Mi4wODQ1OSAwLDIzLjIwNDk4IC0xOC44Nzg0NSw0Mi4wNzk5OSAtNDIuMDgzNDM0LDQyLjA3OTk5IGwgMCwwIHogbSAxNTEuNDEyMzk0LDc3LjE1NzM4IGMgLTE2LjYzODgxLDAgLTMwLjE3MTk5LC0xMy41Mzg5MiAtMzAuMTcxOTksLTMwLjE3MzE0IDAsLTE2LjYzNDIyIDEzLjUzMzE4LC0zMC4xNzE5OSAzMC4xNzE5OSwtMzAuMTcxOTkgMTYuNjM4ODIsMCAzMC4xNzIsMTMuNTM3NzcgMzAuMTcyLDMwLjE3MTk5IDAsMTYuNjM0MjIgLTEzLjUzMzE4LDMwLjE3MzE0IC0zMC4xNzIsMzAuMTczMTQgbCAwLDAgeiIvPiYjeGE7ICA8L2c+JiN4YTs8L3N2Zz4=" parent="z8kIwJJlA8h6gfcJW_PZ-99" vertex="1">
          <mxGeometry x="19.639999999999986" y="36" width="20.72" height="34" as="geometry" />
        </mxCell>
        <mxCell id="z8kIwJJlA8h6gfcJW_PZ-102" style="edgeStyle=orthogonalEdgeStyle;rounded=0;orthogonalLoop=1;jettySize=auto;html=1;exitX=1;exitY=0.5;exitDx=0;exitDy=0;" parent="1" source="z8kIwJJlA8h6gfcJW_PZ-93" target="z8kIwJJlA8h6gfcJW_PZ-100" edge="1">
          <mxGeometry relative="1" as="geometry" />
        </mxCell>
        <mxCell id="XGPJvonO4xi0z36_7KU2-1" value="Anonymized Data Zone" style="rounded=0;whiteSpace=wrap;html=1;dashed=1;dashPattern=8 8;backgroundOutline=0;recursiveResize=0;container=1;dropTarget=1;collapsible=0;rotatable=0;labelPosition=center;verticalLabelPosition=bottom;align=center;verticalAlign=top;expand=1;resizeHeight=0;treeFolding=0;treeMoving=0;comic=0;" vertex="1" parent="1">
          <mxGeometry x="770" y="10" width="750" height="260" as="geometry" />
        </mxCell>
        <mxCell id="XGPJvonO4xi0z36_7KU2-12" value="" style="group" vertex="1" connectable="0" parent="XGPJvonO4xi0z36_7KU2-1">
          <mxGeometry x="42" y="165.55" width="90" height="60" as="geometry" />
        </mxCell>
        <mxCell id="XGPJvonO4xi0z36_7KU2-9" value="orders_no_customer_stream" style="shape=step;perimeter=stepPerimeter;whiteSpace=wrap;html=1;fixedSize=1;labelPosition=center;verticalLabelPosition=bottom;align=center;verticalAlign=top;" vertex="1" parent="XGPJvonO4xi0z36_7KU2-12">
          <mxGeometry width="90" height="60" as="geometry" />
        </mxCell>
        <mxCell id="XGPJvonO4xi0z36_7KU2-10" value="ksqlDB" style="text;html=1;strokeColor=none;fillColor=none;align=center;verticalAlign=middle;whiteSpace=wrap;rounded=0;fontStyle=1" vertex="1" parent="XGPJvonO4xi0z36_7KU2-12">
          <mxGeometry x="14.999999999999986" y="15" width="60" height="30" as="geometry" />
        </mxCell>
        <mxCell id="XGPJvonO4xi0z36_7KU2-44" value="" style="group" vertex="1" connectable="0" parent="XGPJvonO4xi0z36_7KU2-1">
          <mxGeometry x="200" y="165.55" width="90" height="60" as="geometry" />
        </mxCell>
        <mxCell id="XGPJvonO4xi0z36_7KU2-42" value="orders_and_items_by_state_stream" style="shape=step;perimeter=stepPerimeter;whiteSpace=wrap;html=1;fixedSize=1;labelPosition=center;verticalLabelPosition=top;align=center;verticalAlign=bottom;" vertex="1" parent="XGPJvonO4xi0z36_7KU2-44">
          <mxGeometry width="90" height="60" as="geometry" />
        </mxCell>
        <mxCell id="XGPJvonO4xi0z36_7KU2-43" value="&lt;b&gt;ksqlDB&lt;/b&gt;" style="text;html=1;strokeColor=none;fillColor=none;align=center;verticalAlign=middle;whiteSpace=wrap;rounded=0;" vertex="1" parent="XGPJvonO4xi0z36_7KU2-44">
          <mxGeometry x="15" y="15" width="60" height="30" as="geometry" />
        </mxCell>
        <mxCell id="XGPJvonO4xi0z36_7KU2-46" value="" style="group" vertex="1" connectable="0" parent="XGPJvonO4xi0z36_7KU2-1">
          <mxGeometry x="520" y="125" width="158" height="115.55000000000001" as="geometry" />
        </mxCell>
        <mxCell id="XGPJvonO4xi0z36_7KU2-24" value="orders_and_items_by_state" style="shape=table;startSize=30;container=1;collapsible=0;childLayout=tableLayout;strokeColor=default;fontSize=12;" vertex="1" parent="XGPJvonO4xi0z36_7KU2-46">
          <mxGeometry y="25.55000000000001" width="158" height="90" as="geometry" />
        </mxCell>
        <mxCell id="XGPJvonO4xi0z36_7KU2-25" value="" style="shape=tableRow;horizontal=0;startSize=0;swimlaneHead=0;swimlaneBody=0;strokeColor=inherit;top=0;left=0;bottom=0;right=0;collapsible=0;dropTarget=0;fillColor=none;points=[[0,0.5],[1,0.5]];portConstraint=eastwest;fontSize=16;" vertex="1" parent="XGPJvonO4xi0z36_7KU2-24">
          <mxGeometry y="30" width="158" height="20" as="geometry" />
        </mxCell>
        <mxCell id="XGPJvonO4xi0z36_7KU2-26" value="" style="shape=partialRectangle;html=1;whiteSpace=wrap;connectable=0;strokeColor=inherit;overflow=hidden;fillColor=none;top=0;left=0;bottom=0;right=0;pointerEvents=1;fontSize=16;" vertex="1" parent="XGPJvonO4xi0z36_7KU2-25">
          <mxGeometry width="53" height="20" as="geometry">
            <mxRectangle width="53" height="20" as="alternateBounds" />
          </mxGeometry>
        </mxCell>
        <mxCell id="XGPJvonO4xi0z36_7KU2-27" value="" style="shape=partialRectangle;html=1;whiteSpace=wrap;connectable=0;strokeColor=inherit;overflow=hidden;fillColor=none;top=0;left=0;bottom=0;right=0;pointerEvents=1;fontSize=16;" vertex="1" parent="XGPJvonO4xi0z36_7KU2-25">
          <mxGeometry x="53" width="52" height="20" as="geometry">
            <mxRectangle width="52" height="20" as="alternateBounds" />
          </mxGeometry>
        </mxCell>
        <mxCell id="XGPJvonO4xi0z36_7KU2-28" value="" style="shape=partialRectangle;html=1;whiteSpace=wrap;connectable=0;strokeColor=inherit;overflow=hidden;fillColor=none;top=0;left=0;bottom=0;right=0;pointerEvents=1;fontSize=16;" vertex="1" parent="XGPJvonO4xi0z36_7KU2-25">
          <mxGeometry x="105" width="53" height="20" as="geometry">
            <mxRectangle width="53" height="20" as="alternateBounds" />
          </mxGeometry>
        </mxCell>
        <mxCell id="XGPJvonO4xi0z36_7KU2-29" value="" style="shape=tableRow;horizontal=0;startSize=0;swimlaneHead=0;swimlaneBody=0;strokeColor=inherit;top=0;left=0;bottom=0;right=0;collapsible=0;dropTarget=0;fillColor=none;points=[[0,0.5],[1,0.5]];portConstraint=eastwest;fontSize=16;" vertex="1" parent="XGPJvonO4xi0z36_7KU2-24">
          <mxGeometry y="50" width="158" height="20" as="geometry" />
        </mxCell>
        <mxCell id="XGPJvonO4xi0z36_7KU2-30" value="" style="shape=partialRectangle;html=1;whiteSpace=wrap;connectable=0;strokeColor=inherit;overflow=hidden;fillColor=none;top=0;left=0;bottom=0;right=0;pointerEvents=1;fontSize=16;" vertex="1" parent="XGPJvonO4xi0z36_7KU2-29">
          <mxGeometry width="53" height="20" as="geometry">
            <mxRectangle width="53" height="20" as="alternateBounds" />
          </mxGeometry>
        </mxCell>
        <mxCell id="XGPJvonO4xi0z36_7KU2-31" value="" style="shape=partialRectangle;html=1;whiteSpace=wrap;connectable=0;strokeColor=inherit;overflow=hidden;fillColor=none;top=0;left=0;bottom=0;right=0;pointerEvents=1;fontSize=16;" vertex="1" parent="XGPJvonO4xi0z36_7KU2-29">
          <mxGeometry x="53" width="52" height="20" as="geometry">
            <mxRectangle width="52" height="20" as="alternateBounds" />
          </mxGeometry>
        </mxCell>
        <mxCell id="XGPJvonO4xi0z36_7KU2-32" value="" style="shape=partialRectangle;html=1;whiteSpace=wrap;connectable=0;strokeColor=inherit;overflow=hidden;fillColor=none;top=0;left=0;bottom=0;right=0;pointerEvents=1;fontSize=16;" vertex="1" parent="XGPJvonO4xi0z36_7KU2-29">
          <mxGeometry x="105" width="53" height="20" as="geometry">
            <mxRectangle width="53" height="20" as="alternateBounds" />
          </mxGeometry>
        </mxCell>
        <mxCell id="XGPJvonO4xi0z36_7KU2-33" value="" style="shape=tableRow;horizontal=0;startSize=0;swimlaneHead=0;swimlaneBody=0;strokeColor=inherit;top=0;left=0;bottom=0;right=0;collapsible=0;dropTarget=0;fillColor=none;points=[[0,0.5],[1,0.5]];portConstraint=eastwest;fontSize=16;" vertex="1" parent="XGPJvonO4xi0z36_7KU2-24">
          <mxGeometry y="70" width="158" height="20" as="geometry" />
        </mxCell>
        <mxCell id="XGPJvonO4xi0z36_7KU2-34" value="" style="shape=partialRectangle;html=1;whiteSpace=wrap;connectable=0;strokeColor=inherit;overflow=hidden;fillColor=none;top=0;left=0;bottom=0;right=0;pointerEvents=1;fontSize=16;" vertex="1" parent="XGPJvonO4xi0z36_7KU2-33">
          <mxGeometry width="53" height="20" as="geometry">
            <mxRectangle width="53" height="20" as="alternateBounds" />
          </mxGeometry>
        </mxCell>
        <mxCell id="XGPJvonO4xi0z36_7KU2-35" value="" style="shape=partialRectangle;html=1;whiteSpace=wrap;connectable=0;strokeColor=inherit;overflow=hidden;fillColor=none;top=0;left=0;bottom=0;right=0;pointerEvents=1;fontSize=16;" vertex="1" parent="XGPJvonO4xi0z36_7KU2-33">
          <mxGeometry x="53" width="52" height="20" as="geometry">
            <mxRectangle width="52" height="20" as="alternateBounds" />
          </mxGeometry>
        </mxCell>
        <mxCell id="XGPJvonO4xi0z36_7KU2-36" value="" style="shape=partialRectangle;html=1;whiteSpace=wrap;connectable=0;strokeColor=inherit;overflow=hidden;fillColor=none;top=0;left=0;bottom=0;right=0;pointerEvents=1;fontSize=16;" vertex="1" parent="XGPJvonO4xi0z36_7KU2-33">
          <mxGeometry x="105" width="53" height="20" as="geometry">
            <mxRectangle width="53" height="20" as="alternateBounds" />
          </mxGeometry>
        </mxCell>
        <mxCell id="XGPJvonO4xi0z36_7KU2-40" value="&lt;b&gt;ksqlDB&lt;/b&gt;" style="text;html=1;strokeColor=none;fillColor=none;align=center;verticalAlign=middle;whiteSpace=wrap;rounded=0;" vertex="1" parent="XGPJvonO4xi0z36_7KU2-46">
          <mxGeometry x="49" width="60" height="30" as="geometry" />
        </mxCell>
        <mxCell id="XGPJvonO4xi0z36_7KU2-47" style="edgeStyle=orthogonalEdgeStyle;rounded=0;orthogonalLoop=1;jettySize=auto;html=1;exitX=1;exitY=0.5;exitDx=0;exitDy=0;" edge="1" parent="XGPJvonO4xi0z36_7KU2-1" source="XGPJvonO4xi0z36_7KU2-9" target="XGPJvonO4xi0z36_7KU2-42">
          <mxGeometry relative="1" as="geometry" />
        </mxCell>
        <mxCell id="XGPJvonO4xi0z36_7KU2-48" style="edgeStyle=orthogonalEdgeStyle;rounded=0;orthogonalLoop=1;jettySize=auto;html=1;exitX=1;exitY=0.5;exitDx=0;exitDy=0;" edge="1" parent="XGPJvonO4xi0z36_7KU2-1" source="XGPJvonO4xi0z36_7KU2-42" target="XGPJvonO4xi0z36_7KU2-24">
          <mxGeometry relative="1" as="geometry" />
        </mxCell>
        <mxCell id="XGPJvonO4xi0z36_7KU2-51" value="" style="group" vertex="1" connectable="0" parent="XGPJvonO4xi0z36_7KU2-1">
          <mxGeometry x="569" y="10" width="60" height="80" as="geometry" />
        </mxCell>
        <mxCell id="XGPJvonO4xi0z36_7KU2-52" value="anonymized_orders_by_state" style="shape=cylinder3;whiteSpace=wrap;html=1;boundedLbl=1;backgroundOutline=1;size=15;labelPosition=center;verticalLabelPosition=bottom;align=center;verticalAlign=top;" vertex="1" parent="XGPJvonO4xi0z36_7KU2-51">
          <mxGeometry width="60" height="80" as="geometry" />
        </mxCell>
        <mxCell id="XGPJvonO4xi0z36_7KU2-53" value="" style="dashed=0;outlineConnect=0;html=1;align=center;labelPosition=center;verticalLabelPosition=bottom;verticalAlign=top;shape=mxgraph.weblogos.mongodb" vertex="1" parent="XGPJvonO4xi0z36_7KU2-51">
          <mxGeometry x="19.700000000000045" y="32.450000000000045" width="20.6" height="43.1" as="geometry" />
        </mxCell>
        <mxCell id="XGPJvonO4xi0z36_7KU2-13" style="edgeStyle=orthogonalEdgeStyle;rounded=0;orthogonalLoop=1;jettySize=auto;html=1;exitX=0.5;exitY=0;exitDx=0;exitDy=0;exitPerimeter=0;entryX=0;entryY=0.5;entryDx=0;entryDy=0;" edge="1" parent="1" source="z8kIwJJlA8h6gfcJW_PZ-4" target="XGPJvonO4xi0z36_7KU2-9">
          <mxGeometry relative="1" as="geometry">
            <mxPoint x="740" y="230" as="targetPoint" />
            <Array as="points">
              <mxPoint x="660" y="206" />
            </Array>
          </mxGeometry>
        </mxCell>
        <mxCell id="XGPJvonO4xi0z36_7KU2-54" value="" style="group" vertex="1" connectable="0" parent="1">
          <mxGeometry x="1160" y="30" width="90" height="60" as="geometry" />
        </mxCell>
        <mxCell id="XGPJvonO4xi0z36_7KU2-55" value="anonymized_orders_sink" style="shape=step;perimeter=stepPerimeter;whiteSpace=wrap;html=1;fixedSize=1;labelPosition=center;verticalLabelPosition=bottom;align=center;verticalAlign=top;" vertex="1" parent="XGPJvonO4xi0z36_7KU2-54">
          <mxGeometry width="90" height="60" as="geometry" />
        </mxCell>
        <mxCell id="XGPJvonO4xi0z36_7KU2-56" value="Kafka&lt;br&gt;Connect" style="text;html=1;strokeColor=none;fillColor=none;align=center;verticalAlign=middle;whiteSpace=wrap;rounded=0;fontStyle=1" vertex="1" parent="XGPJvonO4xi0z36_7KU2-54">
          <mxGeometry x="15" y="15" width="60" height="30" as="geometry" />
        </mxCell>
        <mxCell id="XGPJvonO4xi0z36_7KU2-58" style="edgeStyle=orthogonalEdgeStyle;rounded=0;orthogonalLoop=1;jettySize=auto;html=1;exitX=1;exitY=0.5;exitDx=0;exitDy=0;" edge="1" parent="1" source="XGPJvonO4xi0z36_7KU2-55" target="XGPJvonO4xi0z36_7KU2-52">
          <mxGeometry relative="1" as="geometry" />
        </mxCell>
        <mxCell id="XGPJvonO4xi0z36_7KU2-59" style="edgeStyle=orthogonalEdgeStyle;rounded=0;orthogonalLoop=1;jettySize=auto;html=1;exitX=1;exitY=0.5;exitDx=0;exitDy=0;" edge="1" parent="1" source="XGPJvonO4xi0z36_7KU2-42" target="XGPJvonO4xi0z36_7KU2-55">
          <mxGeometry relative="1" as="geometry">
            <mxPoint x="1200" y="340" as="sourcePoint" />
            <Array as="points">
              <mxPoint x="1130" y="206" />
              <mxPoint x="1130" y="60" />
            </Array>
          </mxGeometry>
        </mxCell>
      </root>
    </mxGraphModel>
  </diagram>
</mxfile>
